<svg xmlns="http://www.w3.org/2000/svg" viewBox="0 0 360 196"><defs><linearGradient id="linear-gradient" x1="157.1" y1="152.39" x2="205.91" y2="37.41" gradientUnits="userSpaceOnUse"><stop offset="0" stop-color="#e2e6e8" stop-opacity=".1"/><stop offset="1" stop-color="#e2e6e8"/></linearGradient><linearGradient id="linear-gradient-2" x1="236.54" y1="171.39" x2="236.54" y2="163.69" gradientUnits="userSpaceOnUse"><stop offset="0" stop-opacity="0"/><stop offset="1" stop-opacity=".2"/></linearGradient><linearGradient id="linear-gradient-3" x1="150.54" y1="169.68" x2="178.06" y2="169.68" gradientUnits="userSpaceOnUse"><stop offset="0" stop-opacity="0"/><stop offset=".15" stop-opacity=".05"/><stop offset="1" stop-opacity=".1"/></linearGradient><style>.cls-1,.cls-18,.cls-6,.cls-7,.cls-8,.cls-9{fill:none}.cls-3{fill:#d3d5d8}.cls-5{fill:#485cc7;fillRule:evenodd}.cls-6,.cls-7,.cls-8,.cls-9{stroke:#d3d5d8;stroke-width:.8px}.cls-18,.cls-6,.cls-7,.cls-8,.cls-9{stroke-miterlimit:10}.cls-7{stroke-dasharray:4.97 4.97}.cls-8{stroke-dasharray:5.36 5.36}.cls-9{stroke-dasharray:4.66 4.66}.cls-11{fill:#829ca9}.cls-13{fill:#fcd3b9}.cls-14{fill:#5d7079}.cls-16{fill:#2f4367}.cls-17{fill:#77d9f7}.cls-18{stroke:#6f878f;stroke-width:1.42px}</style></defs><path className="cls-1" d="M0 0h360v196H0z" id="frames"/><g id="Layer_1" data-name="Layer 1"><path d="M120 53.22h122.61a2.66 2.66 0 012.66 2.66v79.61h-128V55.88a2.66 2.66 0 012.73-2.66z" fill="url(#linear-gradient)"/><circle className="cls-3" cx="121.3" cy="57.2" r="1.6"/><circle className="cls-3" cx="126.1" cy="57.2" r="1.6"/><circle className="cls-3" cx="130.9" cy="57.2" r="1.6"/><ellipse cx="236.54" cy="167.54" rx="41.62" ry="3.85" fill="url(#linear-gradient-2)"/><path className="cls-5" d="M231.16 79.05h-74.44l2.71-6.4h74.45l-2.72 6.4z"/><path className="cls-6" d="M232.1 99.24l-.94 2.21h-2.4"/><path className="cls-7" d="M223.8 101.45h-86.93"/><path className="cls-6" d="M134.39 101.45h-2.4l.94-2.21m.84-1.98l.94-2.21h2.4"/><path className="cls-7" d="M142.07 95.05H229"/><path className="cls-6" d="M231.48 95.05h2.4l-.94 2.21m-57.67 24.38l-.94 2.2h-2.4"/><path className="cls-8" d="M166.57 123.84h-29.45"/><path className="cls-6" d="M134.44 123.84h-2.4l.94-2.2m.84-1.99l.93-2.21h2.4"/><path className="cls-8" d="M142.51 117.44h29.46"/><path className="cls-6" d="M174.65 117.44h2.39l-.93 2.21m10.13 0l.94-2.21h2.4"/><path className="cls-9" d="M194.24 117.44h34.91"/><path className="cls-6" d="M231.48 117.44h2.4l-.94 2.21m-.84 1.99l-.94 2.2h-2.4"/><path className="cls-9" d="M224.11 123.84h-34.92"/><path className="cls-6" d="M186.87 123.84h-2.4l.93-2.2"/><path className="cls-5" d="M194.31 162.74h50.65l-2.71 6.4h-50.66l2.72-6.4z"/><path className="cls-5" d="M229.47 153.59l49.9 8.72-3.78 5.84-49.9-8.73 3.78-5.83z"/><circle cx="139.58" cy="75.85" r="7.54" fill="#485cc7"/><circle className="cls-11" cx="139.58" cy="73.36" r="2.94"/><path className="cls-11" d="M139.58 78.26a11.18 11.18 0 00-6.23 1.85 7.53 7.53 0 005.39 3.24 7.08 7.08 0 001.68 0 7.53 7.53 0 005.39-3.24 11.16 11.16 0 00-6.23-1.85z"/><path d="M150.54 168.28h12.16a35.86 35.86 0 014.57.2c5.73.71 10.62 1.28 10.79 1.8h-2.72l.28.78h-22" fill="url(#linear-gradient-3)"/><path className="cls-13" d="M174.3 165.06v3.37l1.5.42.59-3.76c-.82.01-1.58 0-2.09-.03z"/><path className="cls-14" d="M177.67 170.47l-2.13.62-2.21-1.79c-.1-.08-.23-.13-.2-.24l1.08-1.7a.28.28 0 01.35 0 4 4 0 011.58 2.27 9.82 9.82 0 011.71.53.19.19 0 01.06.23.8.8 0 01-.24.08z"/><path className="cls-13" d="M163.57 163.29v3.37l1.5.42.58-3.76c-.81.01-1.57 0-2.08-.03z"/><path className="cls-14" d="M166.89 168.7l-2.13.62-2.21-1.79c-.1-.08-.22-.13-.19-.24l1.07-1.7a.29.29 0 01.36 0 4 4 0 011.58 2.27 10.59 10.59 0 011.7.53.19.19 0 01.06.23c-.04.03-.13.05-.24.08z"/><path d="M168.85 128.37h-5.65c-1.92 7.34-.31 12.16-.1 20.47a93.7 93.7 0 01-1.1 15.21 4.76 4.76 0 002.33.52 5.12 5.12 0 002.54-.52c.52-4.42 2.62-10.27 3-15.37.26-3.6 2.13-20.68-1.02-20.31z" fill="#253655"/><path className="cls-16" d="M175.69 128.69l-9.6-.35c-.23 7.51 3.31 13.65 5.71 21.58 2.28 7.58 1.13 15.17 1.21 15.24a4.84 4.84 0 002.38.18 5.1 5.1 0 002.44-.87c-.16-4.45 1.66-12.91 1.27-18-.27-3.61-.32-18.56-3.41-17.78z"/><path className="cls-17" d="M177 130.06c.42-.22 0-1 .5-1.38 3.47-2.74 0-18.79.65-20.49.26-.67-3-.92-5.95-1h-3.58c-2.94.07-5.59.37-6.27.92-1.1.88-.19 9 0 15.49a34.44 34.44 0 00.86 5l4.3 1c.68.13 3.85.49 4.54.52z"/><rect className="cls-13" x="167.59" y="97.84" width="5.86" height="7.21" rx="2.93" transform="rotate(-11.26 170.48 101.41)"/><path className="cls-11" d="M172.38 103.41c.17-.22-.58-1.35-.6-2.15s.5-1.23.25-1.44c-.5-.42-4.68.42-5 1a1.84 1.84 0 00.14 1.36 8.58 8.58 0 00.91 2.08c.64.31 3.8-.34 4.3-.85z"/><path className="cls-17" d="M169.14 106.16h3.71v1.12h-3.71z"/><path className="cls-1" d="M186.56 132l.13.23"/><path className="cls-16" d="M177.2 130.17s-9 .1-9.58-.49l-4.56-.48v-1.44a48.57 48.57 0 004.93.74c2.27.2 9.55.18 9.55.18z"/><path className="cls-18" d="M167 129.18c.33-2.22.21-4.26.85-7.39"/><circle cx="167.02" cy="128.97" r=".84" fill="#a8aaac"/><path className="cls-5" d="M230.95 102.58l-98.92-7.11 3.17-6.19 98.92 7.11-3.17 6.19z"/><path className="cls-17" d="M157.46 103.4c.42 1.25 4.25 6.4 4.44 10.68.17 3.83 8.63-7.27 5.12-7a3.61 3.61 0 01-1.54-.33c-1.64-.73-3.67-3-5-5.13-.51-.83-1.9-7.62-1.9-7.62h-.05a3 3 0 01-2 .15s-.03 6.41.93 9.25z"/><circle className="cls-13" cx="157.39" cy="92.56" r="1"/><path className="cls-17" d="M184.34 106.33c-.74 1.1-5.62 5-5.62 9.34 0 4.21-5.17-8.6-3.34-8.44a3.73 3.73 0 001.15 0 16.37 16.37 0 005.22-3.63c.72-.67 4-6.64 4-6.64a3.13 3.13 0 001.86.67s-1.61 6.22-3.27 8.7z"/><circle className="cls-13" cx="187" cy="95.53" r="1"/><path className="cls-18" d="M167 106.72c-.14.56-3.92 14.67 1.22 15.11 5.59.48 6.58-14.86 6.58-14.86"/></g></svg>