<svg xmlns="http://www.w3.org/2000/svg" viewBox="0 0 390.5 65.9">
  <path d="M388.5 19c-2.1-3.8-6.6-6.6-11.5-6.6-4.3 0-8.1 1.8-8.1 6.3 0 3.8 4.8 6.4 9.7 9.6 5.4 3.4 11 7.6 11 14.8 0 9.4-9.2 15.2-19.8 15.2-4.4 0-8.9-.8-14.1-2.8l.8-12.6c2.5 5 7.1 9 13.9 9 5.3 0 9.2-2.5 9.2-7 0-3.8-3.2-6.1-7.1-8.5-8.2-4.9-13.4-8.9-13.4-16.1 0-10.8 9-14.3 18.3-14.3 5.4 0 8.8 1 12.2 1l-1.1 12M343 30.2c-1.2 2-2.7 4.6-3.6 6.6-.8 3.7-1.2 8.7-1.2 14.1 0 2.3.4 5.3 1.4 6.4H326c2.4-2.3 3.4-16.3 3.3-20.7-1.8-6.3-4.3-12.4-8.1-19.7-2.4-4.6-5.2-9-7-9.8 3.1-.3 7-.5 8.9-.5 3.4 0 4.3.5 6.4 5 3.3 7.4 5.7 12.9 7.1 17 3.5-5.4 5.9-9.1 9-14.2.8-1.2 1.4-2.8 1.4-4.3 0-1.2-.2-2.5-.7-3.1h13.5c-2.6.6-14.3 19.1-16.8 23.2m-47.4-11.4l-8.1 17.5h13.2l-5.1-17.5m15.9 39c-4.3 0-4.6-.1-8.1-12l-1.2-4.4c-2.1 1-5.8 1.4-11.7 1.4h-6l-1 2.2c-1.5 3.3-3.5 7.2-3.5 10 0 .7.1 1.4.3 2.3h-35.6c2-2.3 2.7-9.6 3.6-23l.2-3.2c.5-7.6.9-13.5.8-17.6-.1-3.4-.4-5.5-1.3-6.5h13.7c-2 1.5-2.7 9.6-3.6 22.9l-.3 3.2c-.3 5-1 10-1 15 0 2.3.9 2.8 3.3 2.8 8.3 0 10.4-.2 14.2-2.7 2.3-4.3 5-9.7 7.6-15.3l3.5-7.5c3.3-7 6.6-14.2 6.6-15.6 0-1-.3-1.9-.6-2.8h10.9s4.4 16.4 5.4 19.9l2.1 7.9c3.7 13.4 6.1 19.9 9.2 22.4-2.5.5-6.2.6-7.5.6m-88.7.5c-13 0-20.5-10.7-20.5-22.7 0-16.7 9.1-29.6 26.3-29.6 5.4 0 7.9 1 12.3 1l-1.3 12.8c-2.5-4.5-6.5-7.6-11.9-7.6-10.7 0-15.1 11.6-15.1 21.6 0 10.8 6.1 16.7 14.1 16.7 4.4 0 8.2-1.2 14.7-5.7-2.6 8.5-8.6 13.5-18.6 13.5m-44.9-45.1c-1.2 0-2.7 0-3.9.1-.4 2.1-.7 5.9-1.2 11.9l-.3 3.5c.7.1 1.5.2 2.3.2 6.2 0 10.6-3.8 10.6-9.5 0-4-2.8-6.2-7.5-6.2m18.2 46.3c-3.7 0-4.6-.6-5.9-2.3l-14.1-19.5c-1.1-1.5-2-2.7-3.7-2.7h-.3l-.3 3.8c-.3 5.1-.5 9.3-.5 12.3.1 3.4.5 5.5 1.4 6.3h-13.6c2-1.8 2.7-7.6 3.8-23l.2-3.2c.5-7.6.9-13.4.8-17.5-.1-3.6-.5-5.8-1.4-6.6H181c6.1 0 14.4 1 14.4 10.9 0 8.1-5.4 12.5-12.1 14.6.7.6 1.8 2.1 2.5 3L196 49.1c6.4 8.4 6.9 8.8 9.2 10-2.8.2-6.7.4-9.1.4m-63.5-40.7l-8.1 17.5h13.2l-5.1-17.5m15.8 39c-4.3 0-4.6-.1-8.1-12l-1.2-4.4c-2.1 1-5.8 1.4-11.7 1.4h-6l-1 2.2c-1 2.3-3.6 7.2-3.5 10 0 .7.1 1.3.3 2.3h-12c3.5-3.5 7.8-11.5 13.9-24.4l3.5-7.5c3.2-6.8 6.6-14.5 6.6-15.6 0-1-.3-1.9-.7-2.8h10.9s2.9 10.9 5.4 19.9l2.1 7.9c3.7 13.4 6.1 19.9 9.2 22.4-2.8.5-6.3.6-7.7.6m-62-44.7c-1 0-2.3 0-3.5.1-.5 3.5-.8 6.9-1.1 10.6 0 0-.2 3.2-.2 3.1h1.3c6.4 0 12.2-2.2 12.2-8.1.1-3.4-2.7-5.7-8.7-5.7M84.8 33h-3.6l-.5 7.4c-.3 3.3-.4 6-.5 9.2 0 .5 1.4 1.4 4.8 1.4 7 0 11.7-3.5 11.7-9.3 0-6.3-5.2-8.7-11.9-8.7m.8 24.3H68c2.2-2 2.8-9.6 3.8-23l.2-3.1c.5-7.6.9-13.5.8-17.6-.1-3.5-.5-5.8-1.4-6.6h19.7c4.7 0 14.1.3 14.1 10 0 6.5-6.1 10.6-11.6 12 7.8.8 13.7 4.6 13.7 12.6-.1 8.8-8.3 15.7-21.7 15.7" fill="#00aeef"/>
  <path d="M26.3 6.1c-1.4 0-1.6.2-2.1.7h-.5c-1 0-2.4.2-3.5.9s-1.6 2-1 3c0 0 .4-.6 1.7-.6h.6c1.8.2 3.1 1.2 3 3.6-.1 2.5-1.1 5.3-4.9 5.3h-1c-1.8-.2-2.3-1.3-2.3-1.3s1.5-.4 1.5-2.4c0-1.3-1.2-2.5-2.8-3-.6-.2-1.2-.2-1.8-.2-2 0-4.2.8-5.6 2.8C4.2 19.3 4 25.8 4.8 31.8c.8 6 4.7 11.6 4.8 11.8l.2.2s.1 0 .1-.1c1.7-1.6 3.2-3.8 3.9-5.3.7.6.3 1.8-.1 3.1s-1.3 3.1-1.6 3.7c-.3.6-.7 1.2-.2 1.5.1 0 .1.1.2.1.7 0 2.5-1.3 4.4-3.9 2.2-2.9 3.3-5.5 3.3-5.5.2 0 .4.3.4 1s-.8 3.5-2.3 6.1c-1.5 2.6-2.9 4.2-3.2 4.6-.2.2 0 .3.1.4.1.1 2.8 2.6 6.7 4.7 4.6 2.4 6.6 2.9 6.6 2.9s2-.4 6.6-2.9c3.9-2.1 6.6-4.6 6.7-4.7.1-.1.3-.2.1-.4-.3-.4-1.7-2-3.2-4.6-1.5-2.6-2.3-5.4-2.3-6.1 0-.7.2-1 .4-1.1 0 0 1.1 2.6 3.3 5.5 2 2.6 3.7 3.9 4.4 3.9.1 0 .2 0 .2-.1.6-.3.1-1-.2-1.6-.3-.6-1.2-2.3-1.6-3.7-.4-1.3-.8-2.5 0-3.1.7 1.5 2.2 3.7 3.9 5.3l.1.1c.1 0 .2-.1.2-.2.1-.2 4-5.7 4.8-11.8.8-6 .6-12.5-2.8-16.9-1.5-1.8-3.8-2.7-5.7-2.7-.6 0-1.2.1-1.7.2-1.7.5-2.8 1.7-2.8 3 0 1.9 1.5 2.4 1.5 2.4s-.5 1.1-2.4 1.3c-.3 0-.7.1-1 .1-1.4 0-2.5-.4-3.6-2-1-1.5-1-4.5-1.1-5.5 0-1-.3-3.3-1.3-4.2-1.1-1-2.4-1.3-4-1.3-.1.1-.2.1-.3.1" fill="#00afe9"/>
</svg>
