<svg width="1440" height="1386" xmlns="http://www.w3.org/2000/svg" xmlns:xlink="http://www.w3.org/1999/xlink"><defs><linearGradient x1="62.02%" y1="-.313%" x2="44.199%" y2="75.157%" id="b"><stop stop-color="#574AE2" offset="0%"/><stop stop-color="#574AE2" stop-opacity=".59" offset="57%"/><stop stop-color="#574AE2" stop-opacity=".24" offset="87%"/><stop stop-color="#574AE2" stop-opacity=".1" offset="100%"/></linearGradient><linearGradient x1="62.02%" y1="-.313%" x2="44.199%" y2="75.157%" id="d"><stop stop-color="#574AE2" offset="0%"/><stop stop-color="#574AE2" stop-opacity=".59" offset="57%"/><stop stop-color="#574AE2" stop-opacity=".24" offset="87%"/><stop stop-color="#574AE2" stop-opacity=".1" offset="100%"/></linearGradient><linearGradient x1="56.259%" y1="23.837%" x2="38.366%" y2="100.313%" id="e"><stop stop-color="#37517E" stop-opacity=".1" offset="0%"/><stop stop-color="#37517E" stop-opacity=".35" offset="24%"/><stop stop-color="#37517E" stop-opacity=".97" offset="74%"/><stop stop-color="#37517E" offset="100%"/></linearGradient><linearGradient x1="56.259%" y1="23.837%" x2="38.366%" y2="100.313%" id="f"><stop stop-color="#37517E" stop-opacity=".1" offset="0%"/><stop stop-color="#37517E" stop-opacity=".35" offset="24%"/><stop stop-color="#37517E" stop-opacity=".97" offset="74%"/><stop stop-color="#37517E" offset="100%"/></linearGradient><linearGradient x1="50%" y1="3.683%" x2="50%" y2="77.081%" id="g"><stop stop-color="#2F4468" stop-opacity=".073" offset="0%"/><stop stop-color="#2F4468" offset="100%"/></linearGradient><path id="a" d="M0 0h1440v1386H0z"/></defs><g fill="none" fillRule="evenodd"><mask id="c" fill="#fff"><use xlink:href="#a"/></mask><use fill="#2F4468" xlink:href="#a"/><path fill="url(#b)" fillRule="nonzero" opacity=".4" mask="url(#c)" d="M1284.42 1034.175H1068L1539.58-74H1756z"/><path fill="url(#d)" fillRule="nonzero" opacity=".3" mask="url(#c)" d="M-281.405 1367h-305.831L79.169-199H385z"/><path fill="url(#e)" fillRule="nonzero" mask="url(#c)" transform="rotate(180 1375 1076.642)" d="M1247.42 1633.284H1031L1502.58 520H1719z"/><path fill="url(#f)" fillRule="nonzero" mask="url(#c)" transform="rotate(180 286.5 273.706)" d="M165.781 800.412H-39L407.219-253H612z"/><path fill="url(#g)" d="M145 1221h1151v55H145z"/></g></svg>