<?xml version="1.0" encoding="UTF-8"?>
<svg width="68px" height="55px" viewBox="0 0 68 55" version="1.1" xmlns="http://www.w3.org/2000/svg" xmlns:xlink="http://www.w3.org/1999/xlink">
    <!-- Generator: Sketch 53.2 (72643) - https://sketchapp.com -->
    <title>16-Navigation-Borderless-card-optimized</title>
    <desc>Created with Sketch.</desc>
    <defs>
        <linearGradient x1="50%" y1="100%" x2="50%" y2="-1.44950718e-11%" id="linearGradient-1">
            <stop stop-color="#000000" stop-opacity="0" offset="0%"></stop>
            <stop stop-color="#000000" stop-opacity="0.2" offset="100%"></stop>
        </linearGradient>
    </defs>
    <g id="Design" stroke="none" stroke-width="1" fill="none" fill-rule="evenodd">
        <g id="Navigation-v4_borderless" transform="translate(-77.000000, -100.000000)">
            <g id="16-Navigation-Borderless-card-optimized" transform="translate(77.000000, 94.000000)">
                <polygon id="Path" points="0 0 68 0 68 68 0 68"></polygon>
                <path d="M68,35.6172973 L68,8.78486486 C68,7.58715329 67.0290629,6.61621622 65.8313514,6.61621622 L2.16864865,6.61621622 C0.970937072,6.61621622 1.46677365e-16,7.58715329 0,8.78486486 L0,50.0259459 C1.46677365e-16,51.2236575 0.970937072,52.1945946 2.16864865,52.1945946 L65.8313514,52.1945946 C66.4065127,52.1945946 66.958117,51.9661126 67.3648175,51.5594121 C67.771518,51.1527116 68,50.6011073 68,50.0259459 L68,44.8891892 C65.5841417,42.2706606 65.5841417,38.2358259 68,35.6172973 Z" id="Path" fill="#37EF6A"></path>
                <rect id="Rectangle" fill="#A8AAAC" x="5.06324324" y="24.627027" width="12.432973" height="9.56594595" rx="0.936"></rect>
                <polygon id="Path" fill="#FF5F00" points="51.1837838 37.4459459 56.5686486 37.4459459 56.5686486 46.2491892 51.1837838 46.2491892"></polygon>
                <path d="M51.7443243,41.8475676 C51.7409242,40.1307373 52.5270451,38.5076686 53.8762162,37.4459459 C52.893878,36.6663941 51.6751343,36.2450199 50.4210811,36.2513514 C47.9708896,36.251009 45.8053855,37.8446128 45.0770472,40.184049 C44.3487088,42.5234851 45.2269196,45.064691 47.244297,46.45524 C49.2616744,47.8457891 51.9490541,47.7622934 53.8762162,46.2491892 C52.5303243,45.1848312 51.7450249,43.5634587 51.7443243,41.8475676 L51.7443243,41.8475676 Z" id="Path" fill="#EB001B"></path>
                <path d="M62.9367568,41.8475676 C62.932065,43.9893891 61.707268,45.9413162 59.7807433,46.8772243 C57.8542185,47.8131324 55.5627686,47.5694023 53.8762162,46.2491892 C55.2274447,45.1882771 56.0165153,43.5655177 56.0165153,41.8475676 C56.0165153,40.1296174 55.2274447,38.506858 53.8762162,37.4459459 C55.5627686,36.1257329 57.8542185,35.8820028 59.7807433,36.8179109 C61.707268,37.7538189 62.932065,39.705746 62.9367568,41.8475676 L62.9367568,41.8475676 Z" id="Path" fill="#F79E1B"></path>
                <ellipse id="Oval" fill="url(#linearGradient-1)" cx="34.2205405" cy="59.0864865" rx="22.972973" ry="2.2972973"></ellipse>
            </g>
        </g>
    </g>
</svg>