<?xml version="1.0" encoding="UTF-8"?>
<svg width="70px" height="62px" viewBox="0 0 70 62" version="1.1" xmlns="http://www.w3.org/2000/svg" xmlns:xlink="http://www.w3.org/1999/xlink">
    <!-- Generator: Sketch 53.2 (72643) - https://sketchapp.com -->
    <title>18-Navigation-Business-account-optimized</title>
    <desc>Created with Sketch.</desc>
    <defs>
        <linearGradient x1="82.1333333%" y1="12.3865301%" x2="17.8666667%" y2="87.5971091%" id="linearGradient-1">
            <stop stop-color="#E2E6E8" stop-opacity="0.1" offset="0%"></stop>
            <stop stop-color="#E2E6E8" offset="100%"></stop>
        </linearGradient>
        <ellipse id="path-2" cx="7.71891892" cy="7.28358209" rx="6.98378378" ry="6.91940299"></ellipse>
        <linearGradient x1="50.2349624%" y1="-0.131578947%" x2="50.2349624%" y2="99.5394737%" id="linearGradient-4">
            <stop stop-color="#FFFFFF" offset="0%"></stop>
            <stop stop-color="#F0F0F0" offset="100%"></stop>
        </linearGradient>
        <linearGradient x1="50.2349624%" y1="-0.131578947%" x2="50.2349624%" y2="99.5394737%" id="linearGradient-5">
            <stop stop-color="#043CAE" offset="0%"></stop>
            <stop stop-color="#00339A" offset="100%"></stop>
        </linearGradient>
        <linearGradient x1="144.658621%" y1="-1.62975779%" x2="144.658621%" y2="98.0596886%" id="linearGradient-6">
            <stop stop-color="#FFD429" offset="0%"></stop>
            <stop stop-color="#FFCC00" offset="100%"></stop>
        </linearGradient>
        <ellipse id="path-7" cx="7.25945946" cy="7.24716418" rx="6.98378378" ry="6.91940299"></ellipse>
        <linearGradient x1="-12879.4173%" y1="-721.513158%" x2="-12879.4173%" y2="-728.223684%" id="linearGradient-9">
            <stop stop-color="#FFFFFF" offset="0%"></stop>
            <stop stop-color="#F0F0F0" offset="100%"></stop>
        </linearGradient>
        <linearGradient x1="50.3759398%" y1="-0.197368421%" x2="50.3759398%" y2="100.460526%" id="linearGradient-10">
            <stop stop-color="#0A17A7" offset="0%"></stop>
            <stop stop-color="#030E88" offset="100%"></stop>
        </linearGradient>
        <linearGradient x1="49.8489358%" y1="99.9342439%" x2="49.8489358%" y2="0%" id="linearGradient-11">
            <stop stop-color="#E6273E" offset="0%"></stop>
            <stop stop-color="#CF152B" offset="100%"></stop>
        </linearGradient>
        <linearGradient x1="50.0323493%" y1="100.215214%" x2="50.0323493%" y2="0.140629124%" id="linearGradient-12">
            <stop stop-color="#E6273E" offset="0%"></stop>
            <stop stop-color="#CF152B" offset="100%"></stop>
        </linearGradient>
        <linearGradient x1="50.1141298%" y1="100%" x2="50.1141298%" y2="-0.146044169%" id="linearGradient-13">
            <stop stop-color="#E6273E" offset="0%"></stop>
            <stop stop-color="#CF152B" offset="100%"></stop>
        </linearGradient>
        <linearGradient x1="50.0526623%" y1="100.050463%" x2="50.0526623%" y2="0%" id="linearGradient-14">
            <stop stop-color="#E6273E" offset="0%"></stop>
            <stop stop-color="#CF152B" offset="100%"></stop>
        </linearGradient>
        <linearGradient x1="50.3759398%" y1="-0.197368421%" x2="50.3759398%" y2="100.460526%" id="linearGradient-15">
            <stop stop-color="#E6273E" offset="0%"></stop>
            <stop stop-color="#CF152B" offset="100%"></stop>
        </linearGradient>
        <ellipse id="path-16" cx="7.25945946" cy="7.22895522" rx="6.98378378" ry="6.91940299"></ellipse>
        <linearGradient x1="50.3759398%" y1="-0.4%" x2="50.3759398%" y2="101.6%" id="linearGradient-18">
            <stop stop-color="#D02F44" offset="0%"></stop>
            <stop stop-color="#B12537" offset="100%"></stop>
        </linearGradient>
        <linearGradient x1="50.3289474%" y1="-0.282087447%" x2="50.3289474%" y2="100.423131%" id="linearGradient-19">
            <stop stop-color="#46467F" offset="0%"></stop>
            <stop stop-color="#3C3C6D" offset="100%"></stop>
        </linearGradient>
        <linearGradient x1="50.847293%" y1="2.33050547%" x2="50.847293%" y2="100%" id="linearGradient-20">
            <stop stop-color="#FFFFFF" offset="0%"></stop>
            <stop stop-color="#F0F0F0" offset="100%"></stop>
        </linearGradient>
        <ellipse id="path-21" cx="7.44324324" cy="7.22895522" rx="6.98378378" ry="6.91940299"></ellipse>
        <linearGradient x1="49.906015%" y1="9.58297769e-13%" x2="49.906015%" y2="99.6710526%" id="linearGradient-23">
            <stop stop-color="#FFFFFF" offset="0%"></stop>
            <stop stop-color="#F0F0F0" offset="100%"></stop>
        </linearGradient>
        <linearGradient x1="49.1776316%" y1="9.58297769e-13%" x2="49.1776316%" y2="99.6710526%" id="linearGradient-24">
            <stop stop-color="#FF3131" offset="0%"></stop>
            <stop stop-color="#FF0000" offset="100%"></stop>
        </linearGradient>
        <linearGradient x1="49.6710526%" y1="9.58297769e-13%" x2="49.6710526%" y2="99.6710526%" id="linearGradient-25">
            <stop stop-color="#FF3131" offset="0%"></stop>
            <stop stop-color="#FF0000" offset="100%"></stop>
        </linearGradient>
        <linearGradient x1="50.3289474%" y1="9.58297769e-13%" x2="50.3289474%" y2="99.6710526%" id="linearGradient-26">
            <stop stop-color="#FFFFFF" offset="0%"></stop>
            <stop stop-color="#F0F0F0" offset="100%"></stop>
        </linearGradient>
        <linearGradient x1="50%" y1="0.420757363%" x2="50%" y2="99.5792426%" id="linearGradient-27">
            <stop stop-color="#FF3131" offset="0%"></stop>
            <stop stop-color="#FF0000" offset="100%"></stop>
        </linearGradient>
        <ellipse id="path-28" cx="7.44324324" cy="7.24716418" rx="6.98378378" ry="6.91940299"></ellipse>
        <linearGradient x1="-13005.6391%" y1="-721.513158%" x2="-13005.6391%" y2="-728.223684%" id="linearGradient-30">
            <stop stop-color="#FFFFFF" offset="0%"></stop>
            <stop stop-color="#F0F0F0" offset="100%"></stop>
        </linearGradient>
        <linearGradient x1="-13005.6391%" y1="-721.513158%" x2="-13005.6391%" y2="-728.223684%" id="linearGradient-31">
            <stop stop-color="#0A17A7" offset="0%"></stop>
            <stop stop-color="#030E88" offset="100%"></stop>
        </linearGradient>
        <linearGradient x1="50.2750275%" y1="-0.994318182%" x2="50.2750275%" y2="100.426136%" id="linearGradient-32">
            <stop stop-color="#DB1E36" offset="0%"></stop>
            <stop stop-color="#D51931" offset="100%"></stop>
        </linearGradient>
        <linearGradient x1="49.7915815%" y1="-0.528394451%" x2="49.7915815%" y2="100.527044%" id="linearGradient-33">
            <stop stop-color="#FFFFFF" offset="0%"></stop>
            <stop stop-color="#F0F0F0" offset="100%"></stop>
        </linearGradient>
        <linearGradient x1="50%" y1="-0.423131171%" x2="50%" y2="100.282087%" id="linearGradient-34">
            <stop stop-color="#DB1E36" offset="0%"></stop>
            <stop stop-color="#D51931" offset="100%"></stop>
        </linearGradient>
        <ellipse id="path-35" cx="6.98378378" cy="7.25626866" rx="6.98378378" ry="6.91940299"></ellipse>
        <linearGradient x1="50.4385965%" y1="0.219298246%" x2="50.4385965%" y2="99.8903509%" id="linearGradient-37">
            <stop stop-color="#DE2035" offset="0%"></stop>
            <stop stop-color="#CE1126" offset="100%"></stop>
        </linearGradient>
    </defs>
    <g id="Design" stroke="none" stroke-width="1" fill="none" fill-rule="evenodd">
        <g id="Navigation-v4_business" transform="translate(-98.000000, -94.000000)">
            <g id="18-Navigation-Business-account-optimized" transform="translate(99.000000, 94.000000)">
                <ellipse id="Oval" fill="url(#linearGradient-1)" cx="34" cy="30.9279104" rx="27.5675676" ry="27.3134328"></ellipse>
                <polygon id="Path" fill="#6F8691" points="33.4486486 20.4850746 33.4486486 23.2164179 21.3189189 27.5865672 21.3189189 40.5149254 46.6810811 40.5149254 46.6810811 20.4850746"></polygon>
                <path d="M25.1783784,30.5 L29.5891892,30.5 L29.5891892,31.5925373 L25.1783784,31.5925373 L25.1783784,30.5 Z M25.1783784,35.780597 L29.5891892,35.780597 L29.5891892,36.8731343 L25.1783784,36.8731343 L25.1783784,35.780597 Z M36.2054054,25.219403 L38.4108108,25.219403 L38.4108108,26.3119403 L36.2054054,26.3119403 L36.2054054,25.219403 Z" id="Shape" fill="#DBF4FE" fill-rule="nonzero"></path>
                <path d="M41.7189189,25.219403 L43.9243243,25.219403 L43.9243243,26.3119403 L41.7189189,26.3119403 L41.7189189,25.219403 Z M36.2054054,30.5 L38.4108108,30.5 L38.4108108,31.5925373 L36.2054054,31.5925373 L36.2054054,30.5 Z M41.7189189,30.5 L43.9243243,30.5 L43.9243243,31.5925373 L41.7189189,31.5925373 L41.7189189,30.5 Z" id="Shape" fill="#5D7079" fill-rule="nonzero"></path>
                <path d="M36.2054054,35.780597 L38.4108108,35.780597 L38.4108108,36.8731343 L36.2054054,36.8731343 L36.2054054,35.780597 Z M41.7189189,35.780597 L43.9243243,35.780597 L43.9243243,36.8731343 L41.7189189,36.8731343 L41.7189189,35.780597 Z" id="Shape" fill="#DBF4FE" fill-rule="nonzero"></path>
                <g id="Clipped" transform="translate(53.297297, 23.671642)">
                    <mask id="mask-3" fill="white">
                        <use xlink:href="#path-2"></use>
                    </mask>
                    <g id="Oval"></g>
                    <g id="EU" mask="url(#mask-3)">
                        <g transform="translate(-2.756757, 0.000000)">
                            <polygon id="FlagBackground" fill="url(#linearGradient-4)" fill-rule="evenodd" points="0.698378378 0.364179104 20.252973 0.364179104 20.252973 14.2029851 0.698378378 14.2029851"></polygon>
                            <polygon id="Mask-Copy" fill="url(#linearGradient-5)" fill-rule="evenodd" points="0.698378378 0.364179104 20.252973 0.364179104 20.252973 14.2029851 0.698378378 14.2029851"></polygon>
                            <path d="M10.4756757,3.1319403 L9.81405405,3.32313433 L10.007027,2.66761194 L9.81405405,2.02119403 L10.4756757,2.21238806 L11.1372973,2.02119403 L10.9443243,2.66761194 L11.1372973,3.32313433 L10.4756757,3.1319403 Z M10.4756757,12.3547761 L9.81405405,12.5459701 L10.007027,11.8995522 L9.81405405,11.2440299 L10.4756757,11.4352239 L11.1372973,11.2440299 L10.9443243,11.8995522 L11.1372973,12.5459701 L10.4756757,12.3547761 Z M15.1345946,7.74791045 L14.472973,7.93910448 L14.7027027,7.28358209 L14.5097297,6.6280597 L15.1713514,6.81925373 L15.8237838,6.6280597 L15.6216216,7.28358209 L15.8145946,7.93910448 L15.1345946,7.74791045 Z M5.81675676,7.74791045 L5.16432432,7.93910448 L5.3572973,7.28358209 L5.16432432,6.6280597 L5.81675676,6.81925373 L6.47837838,6.6280597 L6.28540541,7.28358209 L6.47837838,7.93910448 L5.81675676,7.74791045 Z M14.5097297,5.46268657 L13.8481081,5.6538806 L14.0410811,5.00746269 L13.8481081,4.3519403 L14.5097297,4.54313433 L15.1621622,4.3519403 L14.9691892,5.00746269 L15.1621622,5.6538806 L14.5097297,5.46268657 Z M6.43243243,10.0149254 L5.78,10.2061194 L5.97297297,9.55059701 L5.78,8.9041791 L6.43243243,9.10447761 L7.09405405,8.91328358 L6.90108108,9.55970149 L7.09405405,10.2152239 L6.43243243,10.0149254 Z M12.7913514,3.71462687 L12.1389189,3.9058209 L12.3318919,3.25029851 L12.1389189,2.6038806 L12.7913514,2.79507463 L13.452973,2.6038806 L13.26,3.25029851 L13.452973,3.9058209 L12.7913514,3.71462687 Z M8.14162162,11.6992537 L7.48,11.8904478 L7.67297297,11.2440299 L7.48,10.5885075 L8.14162162,10.7797015 L8.79405405,10.5885075 L8.60108108,11.2440299 L8.79405405,11.8904478 L8.14162162,11.6992537 Z M14.5097297,10.0149254 L13.8481081,10.2061194 L14.0410811,9.55059701 L13.8481081,8.9041791 L14.5097297,9.09537313 L15.1621622,8.9041791 L14.9691892,9.55059701 L15.1621622,10.2061194 L14.5097297,10.0149254 Z M6.43243243,5.46268657 L5.78,5.6538806 L5.97297297,5.00746269 L5.78,4.3519403 L6.43243243,4.55223881 L7.09405405,4.36104478 L6.90108108,5.01656716 L7.09405405,5.66298507 L6.43243243,5.46268657 Z M12.7913514,11.7629851 L12.1389189,11.9541791 L12.3318919,11.3077612 L12.1389189,10.6522388 L12.7913514,10.8434328 L13.452973,10.6522388 L13.26,11.3077612 L13.452973,11.9541791 L12.7913514,11.7629851 Z M8.14162162,3.77835821 L7.48,3.96955224 L7.67297297,3.31402985 L7.48,2.66761194 L8.14162162,2.85880597 L8.79405405,2.66761194 L8.60108108,3.31402985 L8.79405405,3.96955224 L8.14162162,3.77835821 Z" id="Star-2" fill="url(#linearGradient-6)" fill-rule="nonzero"></path>
                        </g>
                    </g>
                </g>
                <ellipse id="Oval" stroke="#D3D5D8" stroke-width="0.5" cx="61.0162162" cy="30.9552239" rx="6.98378378" ry="6.91940299"></ellipse>
                <g id="Clipped" transform="translate(13.783784, 47.343284)">
                    <mask id="mask-8" fill="white">
                        <use xlink:href="#path-7"></use>
                    </mask>
                    <g id="Oval"></g>
                    <g id="Group" mask="url(#mask-8)">
                        <g transform="translate(-2.756757, 0.000000)">
                            <polygon id="FlagBackground-2" fill="url(#linearGradient-9)" points="0.238918919 0.327761194 19.7935135 0.327761194 19.7935135 14.1665672 0.238918919 14.1665672"></polygon>
                            <polygon id="Mask-Copy-2" fill="url(#linearGradient-10)" points="0.238918919 0.327761194 19.7935135 0.327761194 19.7935135 14.1665672 0.238918919 14.1665672"></polygon>
                            <polygon id="Path" fill="#FFFFFF" points="19.7935135 0.327761194 18.7 0.327761194 12.3410811 4.57044776 12.3410811 0.327761194 7.69135135 0.327761194 7.69135135 4.57044776 1.32324324 0.327761194 0.238918919 0.327761194 0.238918919 1.82089552 4.89783784 4.93462687 0.238918919 4.93462687 0.238918919 9.55059701 4.89783784 9.55059701 0.238918919 12.6643284 0.238918919 14.1665672 1.32324324 14.1665672 7.69135135 9.91477612 7.69135135 14.1665672 12.3410811 14.1665672 12.3410811 9.91477612 18.7 14.1665672 19.7935135 14.1665672 19.7935135 12.6643284 15.1345946 9.55059701 19.7935135 9.55059701 19.7935135 4.93462687 15.1345946 4.93462687 19.7935135 1.82089552"></polygon>
                            <path d="M19.7935135,0.327761194 L19.572973,0.327761194 L13.1405405,4.5158209 C13.0867239,4.54741803 13.0489825,4.60017262 13.0367142,4.66094855 C13.0244459,4.72172448 13.0388051,4.78480311 13.0762162,4.83447761 C13.1099428,4.88565904 13.1630291,4.92124968 13.2235238,4.93323709 C13.2840185,4.9452245 13.3468373,4.93260116 13.3978378,4.89820896 L19.8302703,0.737462687 L19.7935135,0.327761194 Z" id="Path" fill="url(#linearGradient-11)"></path>
                            <path d="M19.7935135,13.2470149 L14.3443243,9.60522388 C14.2944518,9.56994618 14.2324209,9.55587191 14.1720235,9.5661303 C14.1116261,9.5763887 14.0578684,9.61012946 14.0227027,9.65985075 C13.9494756,9.76803096 13.9782209,9.91450078 14.087027,9.98761194 L19.7935135,13.7932836 L19.7935135,13.2470149 Z" id="Path" fill="url(#linearGradient-12)"></path>
                            <path d="M6.59783784,9.54149254 L0.238918919,13.7204478 L0.238918919,14.1665672 L0.413513514,14.1665672 L6.84594595,9.93298507 C6.89760359,9.89956939 6.93352538,9.84697252 6.94562432,9.78703548 C6.95772326,9.72709844 6.94498248,9.66485877 6.91027027,9.61432836 C6.84054169,9.51403657 6.705387,9.48252862 6.59783784,9.54149254 L6.59783784,9.54149254 Z" id="Path" fill="url(#linearGradient-13)"></path>
                            <path d="M5.95459459,4.49761194 L0.238918919,0.682835821 L0.238918919,1.23820896 L5.6972973,4.88 C5.74743399,4.91706624 5.81109953,4.93129304 5.87244094,4.91913785 C5.93378236,4.90698267 5.98702779,4.86958923 6.01891892,4.81626866 C6.05363113,4.76573824 6.06637191,4.70349858 6.05427297,4.64356154 C6.04217402,4.5836245 6.00625223,4.53102763 5.95459459,4.49761194 L5.95459459,4.49761194 Z" id="Path" fill="url(#linearGradient-14)"></path>
                            <polygon id="Rectangle-2-Copy-3" fill="url(#linearGradient-15)" points="0.238918919 8.63104478 8.61945946 8.63104478 8.61945946 14.1665672 11.412973 14.1665672 11.412973 8.63104478 19.7935135 8.63104478 19.7935135 5.86328358 11.412973 5.86328358 11.412973 0.327761194 8.61945946 0.327761194 8.61945946 5.86328358 0.238918919 5.86328358"></polygon>
                        </g>
                    </g>
                </g>
                <ellipse id="Oval" stroke="#D3D5D8" stroke-width="0.5" cx="21.0432432" cy="54.5904478" rx="6.98378378" ry="6.91940299"></ellipse>
                <g id="Clipped" transform="translate(13.783784, 0.000000)">
                    <mask id="mask-17" fill="white">
                        <use xlink:href="#path-16"></use>
                    </mask>
                    <g id="Oval"></g>
                    <g id="Group" mask="url(#mask-17)">
                        <g transform="translate(-2.756757, 0.000000)">
                            <polygon id="FlagBackground-3" fill="#FFFFFF" fill-rule="evenodd" points="0.238918919 0.309552239 19.7935135 0.309552239 19.7935135 14.1483582 0.238918919 14.1483582"></polygon>
                            <path d="M0.238918919,0.309552239 L19.7935135,0.309552239 L19.7935135,1.22 L0.238918919,1.22 L0.238918919,0.309552239 Z M0.238918919,2.13044776 L19.7935135,2.13044776 L19.7935135,3.04089552 L0.238918919,3.04089552 L0.238918919,2.13044776 Z M0.238918919,3.95134328 L19.7935135,3.95134328 L19.7935135,4.86179104 L0.238918919,4.86179104 L0.238918919,3.95134328 Z M0.238918919,5.77223881 L19.7935135,5.77223881 L19.7935135,6.68268657 L0.238918919,6.68268657 L0.238918919,5.77223881 Z M0.238918919,7.59313433 L19.7935135,7.59313433 L19.7935135,8.50358209 L0.238918919,8.50358209 L0.238918919,7.59313433 Z M0.238918919,9.41402985 L19.7935135,9.41402985 L19.7935135,10.3244776 L0.238918919,10.3244776 L0.238918919,9.41402985 Z M0.238918919,11.2349254 L19.7935135,11.2349254 L19.7935135,12.1453731 L0.238918919,12.1453731 L0.238918919,11.2349254 Z M0.238918919,13.0558209 L19.7935135,13.0558209 L19.7935135,13.9662687 L0.238918919,13.9662687 L0.238918919,13.0558209 Z" id="Rectangle-511" fill="url(#linearGradient-18)" fill-rule="nonzero"></path>
                            <polygon id="Rectangle-511-2" fill="url(#linearGradient-19)" fill-rule="evenodd" points="0.238918919 0.309552239 8.61945946 0.309552239 8.61945946 6.76462687 0.238918919 6.76462687"></polygon>
                            <path d="M1.63567568,2.14865672 C1.51223518,2.15110326 1.39299519,2.10422455 1.30483205,2.0185869 C1.2166689,1.93294925 1.16700233,1.81575985 1.16702703,1.69343284 C1.21101533,1.47660035 1.40325951,1.32060335 1.62648649,1.32060335 C1.84971346,1.32060335 2.04195764,1.47660035 2.08594595,1.69343284 C2.08599599,1.94133302 1.88583238,2.14369872 1.63567568,2.14865672 L1.63567568,2.14865672 Z M3.47351351,2.14865672 C3.35007301,2.15110326 3.23083303,2.10422455 3.14266988,2.0185869 C3.05450674,1.93294925 3.00484017,1.81575985 3.00486486,1.69343284 C3.00486486,1.43699136 3.21468601,1.22910448 3.47351351,1.22910448 C3.59697871,1.22908001 3.71525848,1.27828872 3.80169294,1.36563912 C3.88812739,1.45298953 3.93544228,1.57113029 3.93297297,1.69343284 C3.9334114,1.93455457 3.74400827,2.13418978 3.50108108,2.14865672 L3.47351351,2.14865672 Z M5.31135135,2.14865672 C5.0575989,2.14865672 4.85189189,1.94484604 4.85189189,1.69343284 C4.84942259,1.57113029 4.89673748,1.45298953 4.98317193,1.36563912 C5.06960638,1.27828872 5.18788616,1.22908001 5.31135135,1.22910448 C5.57017885,1.22910448 5.78,1.43699136 5.78,1.69343284 C5.78076935,1.93128445 5.59659386,2.12962971 5.3572973,2.14865672 L5.31135135,2.14865672 Z M7.14918919,2.14865672 C7.02574869,2.15110326 6.9065087,2.10422455 6.81834556,2.0185869 C6.73018242,1.93294925 6.68051584,1.81575985 6.68054054,1.69343284 C6.64314343,1.50909045 6.72164765,1.32059945 6.87937239,1.21603154 C7.03709714,1.11146363 7.24290286,1.11146363 7.40062761,1.21603154 C7.55835235,1.32059945 7.63685657,1.50909045 7.59945946,1.69343284 C7.60312422,1.91603901 7.44374521,2.10861189 7.2227027,2.14865672 L7.14918919,2.14865672 Z M2.49027027,3.05910448 C2.27142029,3.01552169 2.11397183,2.82504973 2.11397183,2.6038806 C2.11397183,2.38271146 2.27142029,2.19223951 2.49027027,2.14865672 C2.70912025,2.19223951 2.86656871,2.38271146 2.86656871,2.6038806 C2.86656871,2.82504973 2.70912025,3.01552169 2.49027027,3.05910448 Z M4.32810811,3.05910448 C4.06928061,3.05910448 3.85945946,2.85121759 3.85945946,2.59477612 C3.85945946,2.33833465 4.06928061,2.13044776 4.32810811,2.13044776 C4.58693561,2.13044776 4.79675676,2.33833465 4.79675676,2.59477612 C4.81116907,2.82344134 4.65508758,3.02834283 4.42918919,3.07731343 L4.32810811,3.05910448 Z M6.16594595,3.05910448 C5.97988837,3.09615684 5.78964357,3.01837632 5.68410272,2.86210558 C5.57856188,2.70583484 5.57856188,2.50192636 5.68410272,2.34565562 C5.78964357,2.18938487 5.97988837,2.11160436 6.16594595,2.14865672 C6.38479592,2.19223951 6.54224439,2.38271146 6.54224439,2.6038806 C6.54224439,2.82504973 6.38479592,3.01552169 6.16594595,3.05910448 Z M7.08486486,3.96955224 C6.96057152,3.96955224 6.8413689,3.92063207 6.75348023,3.83355361 C6.66559156,3.74647515 6.61621622,3.62837142 6.61621622,3.50522388 C6.66020452,3.2883914 6.8524487,3.13239439 7.07567568,3.13239439 C7.29890265,3.13239439 7.49114683,3.2883914 7.53513514,3.50522388 C7.56011378,3.72138955 7.43024401,3.92575184 7.2227027,3.99686567 L7.08486486,3.96955224 Z M5.24702703,3.96955224 C5.12356183,3.96957671 5.00528206,3.92036799 4.91884761,3.83301759 C4.83241315,3.74566719 4.78509826,3.62752643 4.78756757,3.50522388 C4.78756757,3.25381067 4.99327457,3.05 5.24702703,3.05 C5.37046753,3.04755346 5.48970751,3.09443217 5.57787066,3.18006982 C5.6660338,3.26570747 5.71570037,3.38289687 5.71567568,3.50522388 C5.73564796,3.73444043 5.58319417,3.94358433 5.3572973,3.99686567 L5.24702703,3.96955224 Z M3.40918919,3.96955224 C3.15036169,3.96955224 2.94054054,3.76166535 2.94054054,3.50522388 C2.94051584,3.38289687 2.99018242,3.26570747 3.07834556,3.18006982 C3.1665087,3.09443217 3.28574869,3.04755346 3.40918919,3.05 C3.66294164,3.05 3.86864865,3.25381067 3.86864865,3.50522388 C3.89211439,3.73841326 3.73306338,3.95115271 3.50108108,3.99686567 L3.40918919,3.96955224 Z M1.57135135,3.96955224 C1.31252385,3.96955224 1.1027027,3.76166535 1.1027027,3.50522388 C1.146691,3.2883914 1.33893518,3.13239439 1.56216216,3.13239439 C1.78538914,3.13239439 1.97763332,3.2883914 2.02162162,3.50522388 C2.03943441,3.74296863 1.87263389,3.95544943 1.63567568,3.99686567 L1.57135135,3.96955224 Z M2.49027027,4.88 C2.23651782,4.88 2.03081081,4.67618933 2.03081081,4.42477612 C2.0283415,4.30247357 2.07565639,4.18433281 2.16209085,4.09698241 C2.2485253,4.00963201 2.36680508,3.96042329 2.49027027,3.96044776 C2.74909777,3.96044776 2.95891892,4.16833465 2.95891892,4.42477612 C2.98082728,4.66689985 2.80686057,4.88335568 2.56378378,4.91641791 L2.49027027,4.88 Z M4.32810811,4.88 C4.20466761,4.88244654 4.08542762,4.83556783 3.99726448,4.74993018 C3.90910133,4.66429253 3.85943476,4.54710313 3.85945946,4.42477612 C3.82206235,4.24043373 3.90056657,4.05194273 4.05829131,3.94737482 C4.21601606,3.84280692 4.42182178,3.84280692 4.57954652,3.94737482 C4.73727127,4.05194273 4.81577549,4.24043373 4.77837838,4.42477612 C4.80328309,4.65232914 4.65378242,4.86281898 4.42918919,4.91641791 L4.32810811,4.88 Z M6.16594595,4.88 C6.04250545,4.88244654 5.92326546,4.83556783 5.83510232,4.74993018 C5.74693917,4.66429253 5.6972726,4.54710313 5.6972973,4.42477612 C5.6972973,4.30162858 5.74667264,4.18352485 5.83456131,4.09644639 C5.92244998,4.00936793 6.0416526,3.96044776 6.16594595,3.96044776 C6.28941114,3.96042329 6.40769091,4.00963201 6.49412537,4.09698241 C6.58055982,4.18433281 6.62787471,4.30247357 6.62540541,4.42477612 C6.65204751,4.64693124 6.51181584,4.85533964 6.29459459,4.91641791 L6.16594595,4.88 Z M7.08486486,5.79044776 C6.82603736,5.79044776 6.61621622,5.58256087 6.61621622,5.3261194 C6.61621622,5.06967793 6.82603736,4.86179104 7.08486486,4.86179104 C7.34369237,4.86179104 7.55351351,5.06967793 7.55351351,5.3261194 C7.59081564,5.55694757 7.44910184,5.77925928 7.2227027,5.84507463 L7.08486486,5.79044776 Z M5.24702703,5.79044776 C5.02817705,5.74686497 4.87072859,5.55639302 4.87072859,5.33522388 C4.87072859,5.11405475 5.02817705,4.92358279 5.24702703,4.88 C5.4330846,4.84294764 5.6233294,4.92072816 5.72887025,5.0769989 C5.8344111,5.23326964 5.8344111,5.43717812 5.72887025,5.59344886 C5.6233294,5.7497196 5.4330846,5.82750012 5.24702703,5.79044776 Z M3.40918919,5.79044776 C3.22313161,5.82750012 3.03288682,5.7497196 2.92734597,5.59344886 C2.82180512,5.43717812 2.82180512,5.23326964 2.92734597,5.0769989 C3.03288682,4.92072816 3.22313161,4.84294764 3.40918919,4.88 C3.62803917,4.92358279 3.78548763,5.11405475 3.78548763,5.33522388 C3.78548763,5.55639302 3.62803917,5.74686497 3.40918919,5.79044776 Z M1.57135135,5.79044776 C1.31252385,5.79044776 1.1027027,5.58256087 1.1027027,5.3261194 C1.1027027,5.06967793 1.31252385,4.86179104 1.57135135,4.86179104 C1.83017885,4.86179104 2.04,5.06967793 2.04,5.3261194 C2.07254699,5.57992817 1.89173824,5.81199841 1.63567568,5.84507463 L1.57135135,5.79044776 Z" id="Oval-43" fill="url(#linearGradient-20)" fill-rule="nonzero"></path>
                        </g>
                    </g>
                </g>
                <ellipse id="Oval" stroke="#D3D5D8" stroke-width="0.5" cx="21.0432432" cy="7.22895522" rx="6.98378378" ry="6.91940299"></ellipse>
                <g id="Clipped" transform="translate(39.513514, 0.000000)">
                    <mask id="mask-22" fill="white">
                        <use xlink:href="#path-21"></use>
                    </mask>
                    <g id="Oval"></g>
                    <g id="Symbols" mask="url(#mask-22)">
                        <g transform="translate(-2.756757, 0.000000)" id="CA">
                            <g>
                                <polygon id="FlagBackground-4" fill="url(#linearGradient-23)" points="0.422702703 0.309552239 19.9772973 0.309552239 19.9772973 14.1483582 0.422702703 14.1483582"></polygon>
                                <polygon id="Mask" fill="url(#linearGradient-24)" points="14.3902703 0.309552239 19.9772973 0.309552239 19.9772973 14.1483582 14.3902703 14.1483582"></polygon>
                                <polygon id="Rectangle-2" fill="url(#linearGradient-25)" points="0.422702703 0.309552239 6.00972973 0.309552239 6.00972973 14.1483582 0.422702703 14.1483582"></polygon>
                                <polygon id="Rectangle-2-Copy" fill="url(#linearGradient-26)" points="6.00972973 0.309552239 14.3902703 0.309552239 14.3902703 14.1483582 6.00972973 14.1483582"></polygon>
                                <path d="M11.2935135,7.06507463 L11.9459459,6.4641791 C11.9892461,6.41966916 12.0489568,6.39452395 12.1113514,6.39452395 C12.1737459,6.39452395 12.2334566,6.41966916 12.2767568,6.4641791 L12.5708108,6.75552239 L13.4897297,6.29119403 L13.0210811,7.20164179 L13.3151351,7.49298507 C13.3600592,7.53588611 13.3854384,7.59504631 13.3854384,7.65686567 C13.3854384,7.71868503 13.3600592,7.77784523 13.3151351,7.82074627 L12.0654054,9.10447761 L10.6686486,9.10447761 L10.4297297,10.4883582 L9.97027027,10.4883582 L9.73135135,9.10447761 L8.33459459,9.10447761 L7.10324324,7.88447761 C7.01455731,7.79289113 7.01455731,7.6483029 7.10324324,7.55671642 L7.3972973,7.26537313 L6.92864865,6.35492537 L7.84756757,6.81925373 L8.14162162,6.52791045 C8.18492182,6.48340051 8.24463247,6.45825529 8.30702703,6.45825529 C8.36942158,6.45825529 8.42913223,6.48340051 8.47243243,6.52791045 L9.07891892,7.12880597 C9.17081081,7.21985075 9.21675676,7.19253731 9.19837838,7.06507463 L8.80324324,4.91641791 L9.72216216,5.38074627 L10.1908108,3.99686567 L10.6594595,5.38074627 L11.5783784,4.91641791 L11.1556757,7.00134328 C11.1556757,7.12880597 11.2016216,7.1561194 11.2935135,7.06507463 L11.2935135,7.06507463 Z" id="Combined-Shape" fill="url(#linearGradient-27)"></path>
                            </g>
                        </g>
                    </g>
                </g>
                <ellipse id="Oval" stroke="#D3D5D8" stroke-width="0.5" cx="46.9567568" cy="7.22895522" rx="6.98378378" ry="6.91940299"></ellipse>
                <g id="Clipped" transform="translate(39.513514, 47.343284)">
                    <mask id="mask-29" fill="white">
                        <use xlink:href="#path-28"></use>
                    </mask>
                    <g id="Oval"></g>
                    <g id="Symbols-2" mask="url(#mask-29)">
                        <g transform="translate(-2.756757, 0.000000)" id="AU">
                            <g>
                                <polygon id="FlagBackground-5" fill="url(#linearGradient-30)" points="0.422702703 0.327761194 19.9772973 0.327761194 19.9772973 14.1665672 0.422702703 14.1665672"></polygon>
                                <polygon id="Mask-Copy-3" fill="url(#linearGradient-31)" points="0.422702703 0.327761194 19.9772973 0.327761194 19.9772973 14.1665672 0.422702703 14.1665672"></polygon>
                                <polygon id="Star-2-2" fill="#FFFFFF" points="4.61297297 11.6264179 3.79513514 12.0543284 3.95135135 11.1529851 3.28054054 10.5065672 4.19945946 10.37 4.61297297 9.55059701 5.02648649 10.37 5.94540541 10.5065672 5.27459459 11.1529851 5.43081081 12.0543284 4.61297297 11.6264179"></polygon>
                                <polygon id="Star-2-3" fill="#FFFFFF" points="14.3902703 12.3183582 13.7286486 12.5095522 13.9216216 11.8540299 13.7286486 11.2076119 14.3902703 11.398806 15.0518919 11.2076119 14.8589189 11.8540299 15.0518919 12.5095522"></polygon>
                                <polygon id="Star-2-4" fill="#FFFFFF" points="14.3902703 3.55074627 13.7286486 3.7419403 13.9216216 3.09552239 13.7286486 2.44 14.3902703 2.63119403 15.0518919 2.44 14.8589189 3.09552239 15.0518919 3.7419403"></polygon>
                                <polygon id="Star-2-5" fill="#FFFFFF" points="17.1837838 6.31850746 16.5221622 6.50970149 16.7151351 5.86328358 16.5221622 5.20776119 17.1837838 5.39895522 17.8454054 5.20776119 17.6524324 5.86328358 17.8454054 6.50970149"></polygon>
                                <polygon id="Star-2-6" fill="#FFFFFF" points="11.5967568 7.24716418 10.9351351 7.43835821 11.1281081 6.78283582 10.9351351 6.12731343 11.5967568 6.31850746 12.2583784 6.12731343 12.0654054 6.78283582 12.2583784 7.43835821"></polygon>
                                <polygon id="Star-2-7" fill="#FFFFFF" points="15.787027 8.39432836 15.4562162 8.49447761 15.5572973 8.16671642 15.4562162 7.83895522 15.787027 7.93910448 16.1178378 7.83895522 16.0167568 8.16671642 16.1178378 8.49447761"></polygon>
                                <path d="M8.87675676,1.3019403 C9.11807955,1.12716376 9.26401327,0.851437018 9.27189189,0.555373134 L9.27189189,0.327761194 L7.92108108,0.327761194 L4.94378378,2.14865672 L4.30054054,2.14865672 L1.69081081,0.327761194 L0.422702703,0.327761194 L0.422702703,0.910447761 L3.17945946,3.28671642 L3.17945946,3.76014925 L0.422702703,5.7358209 L0.422702703,7.31089552 L4.28216216,4.91641791 L4.92540541,4.91641791 L7.87513514,7.00134328 C8.08013581,7.14387559 8.32314315,7.22307531 8.57351351,7.22895522 C8.8120718,7.24287993 9.03169903,7.1004072 9.11421485,6.87820094 C9.19673067,6.65599467 9.12267299,6.40646417 8.93189189,6.2638806 L6.00972973,3.78746269 L6.00972973,3.31402985 L8.87675676,1.3019403 Z" id="Path" fill="#FFFFFF"></path>
                                <path d="M3.67567568,3.09552239 L0.413513514,0.364179104 L0.918918919,0.364179104 L4.17189189,2.66761194 L5.09081081,2.66761194 L8.76648649,0.364179104 L8.76648649,0.591791045 C8.76021732,0.735628026 8.68945106,0.869178294 8.57351351,0.955970149 L5.51351351,3.09552239 L5.51351351,4.00597015 L8.60108108,6.6280597 C8.69297297,6.71 8.66540541,6.77373134 8.54594595,6.77373134 C8.39219814,6.76756276 8.2429835,6.72038007 8.11405405,6.63716418 L5.05405405,4.47029851 L4.13513514,4.47029851 L0.459459459,6.77373134 L0.459459459,6.30940299 L3.67567568,4.01507463 L3.67567568,3.09552239 Z" id="Rectangle-36" fill="url(#linearGradient-32)"></path>
                                <path d="M0.422702703,2.63119403 L0.422702703,4.45208955 L3.67567568,4.45208955 L3.67567568,6.75552239 C3.67314862,6.87942052 3.72171203,6.99898458 3.81015445,7.08661168 C3.89859686,7.17423878 4.01927339,7.22235451 4.14432432,7.21985075 L5.06324324,7.21985075 C5.32207074,7.21985075 5.53189189,7.01196386 5.53189189,6.75552239 L5.53189189,4.47940299 L8.80324324,4.47940299 C8.92754439,4.47701186 9.04579289,4.42578326 9.13196333,4.33699215 C9.21813378,4.24820104 9.26516387,4.12912448 9.2627027,4.00597015 L9.2627027,3.09552239 C9.26517201,2.97321984 9.21785712,2.85507908 9.13142267,2.76772868 C9.04498821,2.68037828 8.92670844,2.63116956 8.80324324,2.63119403 L5.51351351,2.63119403 L5.51351351,0.327761194 L3.67567568,0.327761194 L3.67567568,2.63119403 L0.422702703,2.63119403 Z" id="Rectangle-2-2" fill="url(#linearGradient-33)"></path>
                                <polygon id="Rectangle-36-2" fill="url(#linearGradient-34)" points="0.422702703 3.09552239 4.14432432 3.09552239 4.14432432 0.327761194 5.08162162 0.327761194 5.08162162 3.09552239 8.80324324 3.09552239 8.80324324 4.01507463 5.08162162 4.01507463 5.08162162 6.78283582 4.14432432 6.78283582 4.14432432 4.01507463 0.422702703 4.01507463"></polygon>
                            </g>
                        </g>
                    </g>
                </g>
                <ellipse id="Oval" stroke="#D3D5D8" stroke-width="0.5" cx="46.9567568" cy="54.5904478" rx="6.98378378" ry="6.91940299"></ellipse>
                <g id="Clipped" transform="translate(0.000000, 23.671642)">
                    <mask id="mask-36" fill="white">
                        <use xlink:href="#path-35"></use>
                    </mask>
                    <g id="Oval"></g>
                    <g id="Symbols-3" mask="url(#mask-36)">
                        <g transform="translate(-3.675676, 0.000000)" id="JP">
                            <g>
                                <polygon id="FlagBackground-6" fill="#FFFFFF" points="0.882162162 0.336865672 20.4367568 0.336865672 20.4367568 14.1756716 0.882162162 14.1756716"></polygon>
                                <ellipse id="Oval-9" fill="url(#linearGradient-37)" cx="10.6594595" cy="7.25626866" rx="4.19027027" ry="4.15164179"></ellipse>
                            </g>
                        </g>
                    </g>
                </g>
                <ellipse id="Oval" stroke="#D3D5D8" stroke-width="0.5" cx="6.98378378" cy="30.9279104" rx="6.98378378" ry="6.91940299"></ellipse>
            </g>
        </g>
    </g>
</svg>