<svg xmlns="http://www.w3.org/2000/svg" xmlns:xlink="http://www.w3.org/1999/xlink" viewBox="0 0 360 196"><defs><linearGradient id="linear-gradient" x1="157.39" y1="152.14" x2="206.05" y2="37.52" gradientUnits="userSpaceOnUse"><stop offset="0" stop-color="#e2e6e8" stop-opacity=".1"/><stop offset="1" stop-color="#e2e6e8"/></linearGradient><linearGradient id="linear-gradient-2" x1="6252.25" y1="155.22" x2="6275.29" y2="155.22" gradientTransform="translate(-6163)" gradientUnits="userSpaceOnUse"><stop offset="0" stop-opacity="0"/><stop offset=".15" stop-opacity=".05"/><stop offset="1" stop-opacity=".1"/></linearGradient><linearGradient id="linear-gradient-3" x1="10322.4" y1="172.34" x2="10345.54" y2="172.34" gradientTransform="matrix(-1 0 0 1 10604.28 0)" xlink:href="#linear-gradient-2"/><clipPath id="clip-path"><path class="cls-1" d="M264.36 130.45l.21-1.74 1.28.41a7.4 7.4 0 002.77.32l1.67-.14-.21 1.74 4.57.47-1.65 6.89a37.4 37.4 0 00-1 7.94l-.17 8.37c-3.43-.35-7.06-3.51-7.06-3.51s.88 3.09-8.82 2l3.1-10.71a18.25 18.25 0 00.29-2.44l.48-10.1z"/></clipPath><style>.cls-1,.cls-8{fill:none}.cls-3{fill:#d3d5d8}.cls-6{fill:#485cc7}.cls-7{fill:#253655}.cls-8{stroke:#485cc7;stroke-miterlimit:10;stroke-width:1.59px}.cls-10{fill:#1aa6dd}.cls-11{fill:#845739}.cls-12{fill:#2f4367}.cls-14{fill:#77d9f7}.cls-16{fill:#5d7079}.cls-17{fill:#c58f62}.cls-18{fill:#829ca9}</style></defs><path class="cls-1" d="M0 0h360v196H0z" id="frames"/><g id="Layer_1" data-name="Layer 1"><path d="M120.37 53.28h122.27a2.65 2.65 0 012.65 2.65v79.36H117.71V55.93a2.65 2.65 0 012.66-2.65z" fill="url(#linear-gradient)"/><circle class="cls-3" cx="121.7" cy="57.25" r="1.59"/><circle class="cls-3" cx="126.48" cy="57.25" r="1.59"/><circle class="cls-3" cx="131.27" cy="57.25" r="1.59"/><path d="M145.92 76.61h47.9v11.63h-47.9z" fill="#f2f5f7"/><path class="cls-3" d="M193.83 76.61h23.25v11.63h-23.25z"/><path d="M145.92 100.33h47.9v11.63h-47.9z" fill="#fff"/><path class="cls-6" d="M151.76 104.15l-1.49 3.99h25.24l1.5-3.99h-25.25z"/><path class="cls-7" d="M193.83 100.33h23.25v11.63h-23.25z"/><path class="cls-3" d="M149.52 88.28h1.18v11.84h-1.18zm17.75 4.74h-14.2v-1.19h14.65l-.45 1.19zm.45 2.37h-14.65v1.18h26.04l.45-1.18h-11.84z"/><circle class="cls-1" cx="212" cy="106.35" r="11.96"/><path class="cls-8" d="M223.96 106.35h5.98m-7.43-5.97l3.79-2.19m-3.79 14.14l3.79 2.19"/><circle class="cls-1" cx="150.65" cy="106.35" r="11.96"/><path class="cls-8" d="M138.69 106.35h-5.98m7.43 5.97l-3.8 2.19m3.8-14.14l-3.8-2.19"/><path d="M89.46 153.94c8.31.85 22.83.68 22.83 2.56h-23" fill="url(#linear-gradient-2)"/><rect class="cls-7" x="81.96" y="75.6" width=".51" height="13.36" rx=".25" transform="rotate(160.66 82.22 82.28)"/><path class="cls-6" d="M81.63 81.63l1.61-.17a17.91 17.91 0 007.69-2.7l1.38-.88-2.9-1.79.59-3.65-1 .64a17.78 17.78 0 01-7.69 2.7l-1.68.22z"/><ellipse class="cls-10" cx="99.7" cy="94.79" rx=".49" ry=".24" transform="rotate(-20.96 99.71 94.79)"/><path class="cls-11" d="M111.17 155.89l-.86.02-.17-3.78 1.27-.78-.24 4.54z"/><path class="cls-12" d="M106.41 119.27c.18 7.47 4 13.53 3.24 20-.49 4.5.11 14.12.11 14.12a2.91 2.91 0 001 .24 2.43 2.43 0 00.78-.24 67.3 67.3 0 002.5-15c.62-12.65-2.44-21.23-2.44-21.23z"/><path class="cls-10" d="M99.5 108.29c0 .47-.51.91-1.24 1s-1.37-.25-1.42-.72a1.6 1.6 0 011.25-1.47 1.48 1.48 0 011.41 1.19z"/><path class="cls-11" d="M98.62 100.32a15.18 15.18 0 004.66.11 22 22 0 004.29-1l3.89 5.91-.52 6.49-10.65 1.17-4-7.22zM85.68 90.14a.94.94 0 100 1 .92.92 0 000-1z"/><path class="cls-11" d="M98.19 102.67a8.89 8.89 0 012.07-2c-2-.69-6.14-1-8.33-2.82a29.74 29.74 0 01-5.59-6.56 2 2 0 01-.49.72 1.92 1.92 0 01-.64.29s4.16 6.75 5.58 8.57a43 43 0 004.77 5.78c.47.43 2.62 2.61 2.72 2.42.47-.94-.36-5.81-.09-6.4z"/><path class="cls-10" d="M103.56 93.26a.4.4 0 00.55.08 1.06 1.06 0 00.37-.73c0-.07-.3 0-.55.2s-.42.38-.37.45z"/><path class="cls-11" d="M102.47 92a2.56 2.56 0 012.53 2.55v2a2.61 2.61 0 01-2.61 2.61 2.52 2.52 0 01-2.52-2.52v-2.09a2.56 2.56 0 012.6-2.55z" transform="rotate(-20.96 102.47 95.6)"/><path d="M101.36 96.95zm0 0v.01-.01zm-.42 1.36zm3.55-4.6a2.56 2.56 0 10-4.79 1.83l.83 2.18a2.75 2.75 0 00.37.65v-.06l.18-.32.07-.16a1.34 1.34 0 00.07-.18v-.16a1.36 1.36 0 010-.17v-.38a2.53 2.53 0 000-.28 1.15 1.15 0 000-.26 1.89 1.89 0 000-.23v-.16a.54.54 0 010-.1 2.07 2.07 0 010-.22v-.12a.93.93 0 01.05-.1 2.16 2.16 0 01.29-.37l.12-.09.13-.11.27-.18h.25l.34-.12.3-.1.27-.11.27-.08c.09 0 .18 0 .27-.09a1.66 1.66 0 00.31-.12l.16-.07.15-.07a.39.39 0 00.1-.08z" fill="#66432f"/><path class="cls-14" d="M99.24 95l.36 1a13 13 0 002.93-.84 8.83 8.83 0 002.32-1.44c-.51-.68-.34-1.08-.37-1a9.22 9.22 0 01-2.33 1.28c-1.15.43-2.91 1-2.91 1z"/><path class="cls-11" d="M118.52 87.14a.94.94 0 11.25 1 1 1 0 01-.25-1zM109 101.71c-.48-.64-2.78-2.18-2.59-1.83 1.76-1 5.9-1.86 7.66-4a28.6 28.6 0 004.08-7.28 1.92 1.92 0 00.61.58 2.08 2.08 0 00.68.15 95.37 95.37 0 01-3.67 9.15c-.89 1.52-2.51 5.06-4.34 6.87-.53.52-1.97-2.99-2.43-3.64z"/><circle class="cls-11" cx="108.6" cy="103.06" r="3.72"/><ellipse class="cls-12" cx="107.88" cy="119.26" rx="4.19" ry="4.6"/><path class="cls-11" d="M97.12 156.24l-.81-.27 1.16-3.61 1.46-.28-1.81 4.16z"/><path class="cls-12" d="M102.07 117.51c-3.15 6.35 1.48 14.42-.85 20.69-1.53 4.11-4.36 14.56-4.36 14.56a3.29 3.29 0 00.9.58 2.45 2.45 0 00.81 0 74.09 74.09 0 007.09-14.53c3.68-10.77.75-21.48.75-21.48z"/><path class="cls-12" d="M107.73 120c0 2.62.38 4.75-2 4.75a4.77 4.77 0 010-9.5c2.38.04 2 2.16 2 4.75z"/><path class="cls-14" d="M101.61 118.31a8.56 8.56 0 004.88 1.15c4.34-.47 4.71-3 4.72-3 .14-1.63-.11-2.48 0-4.48l.29-5.79c-1.66 0-3.07-4.86-3.31-7.19 0 0-.44 0-.84.12a3.77 3.77 0 00-.58.14l-.72.24s1.85 3.82-.67 4.08-4.23-3.58-4.23-3.58h-.33a5.5 5.5 0 00-1.28.12l-.54.1c.24 2.33 2.62 9.27-2.12 8.42 3.12 7.09 4.73 8.94 4.73 9.67zm-.84 38.19h-4.64c-.15 0-.28-.09-.28-.21V155c0-.12.13-.21.28-.21a9 9 0 014.83 1.36.16.16 0 01.07.23.28.28 0 01-.26.12zm13.98.11h-4.64a.25.25 0 01-.28-.21v-1.31a.25.25 0 01.28-.21 9.1 9.1 0 014.83 1.36.17.17 0 01.07.23.3.3 0 01-.26.14z"/><path d="M281.87 170.76c-8.1 1.09-23.13.58-23.13 2.49h4.32l4.44.67h14.37" fill="url(#linear-gradient-3)"/><path class="cls-16" d="M272 154.81c-.13 1.09-3.37 2-7.1 1.55s-7.37-1.58-6.8-3c.4-1 3.63-1.75 7.36-1.31s6.7 1.66 6.54 2.76z"/><path class="cls-7" transform="rotate(2.83 265.22 151.23)" d="M260.72 148.91h9.2v4.85h-9.2z"/><path class="cls-17" transform="rotate(-6.08 261.75 169.97)" d="M261.24 168.34h1.5v3.5h-1.5z"/><path class="cls-17" transform="rotate(-15.68 270.59 171.16)" d="M269.85 169.42h1.5v3.5h-1.5z"/><path class="cls-7" d="M262.63 169.78a.64.64 0 01-.19.08 3.5 3.5 0 01-1.64 0 .56.56 0 01-.24-.13.61.61 0 01-.21-.35s-1.72-5.55-1.75-8.27c-.05-5 1.51-9.59 1.78-9.67l6.92-1.3a.62.62 0 01.66.92l-3.62 6.26v.06c-.71 1.63-1.48 2.91-1.47 4.68 0 2.45.18 6.22.09 7.23a.6.6 0 01-.33.49z"/><path class="cls-12" d="M271 169.87a.7.7 0 01-.16.13 3.46 3.46 0 01-1.57.44.63.63 0 01-.27-.06.63.63 0 01-.3-.28s-3.18-4.87-3.92-7.49c-.91-3.24-1.22-11.42-1-11.57l6.4-1.35c.48-.23.57.18.44.69l-1.35 7a.25.25 0 000 .08c-.24 1.76-.64 3.19-.15 4.9.67 2.35 1.85 5.94 2 6.93a.6.6 0 01-.12.58z"/><path class="cls-18" d="M265.21 130.45l.2-1.74 1.17.41a6.27 6.27 0 002.54.32l1.53-.14-.19 1.74 2.9.36-.22 7c-.58 2.61-1.5 5.44-1.55 8.11l.44 8.2c-6.81-.77-7.31-3.58-7.31-3.58s.4 1.83-2.88 2.19c-2.51.27-3.39-.54-3.78.21a3 3 0 01.11-.57 71 71 0 002.38-9.26c.33-2 .47-13.72.47-13.72z"/><path class="cls-7" d="M258.77 173.34l4.19-.09c.13 0 .27 0 .27-.19v-1.31a.27.27 0 00-.24-.28 8.26 8.26 0 00-4.38 1.38.29.29 0 00-.06.31.23.23 0 00.22.18zm8.79.58h4.21a.26.26 0 00.24-.28v-1.31a.26.26 0 00-.24-.28 8.34 8.34 0 00-4.38 1.38.31.31 0 00-.05.31.23.23 0 00.22.18z"/><circle class="cls-17" cx="255.39" cy="118.42" r="1.24"/><path class="cls-18" d="M260.86 137.9c.11-5-2.74-3.28-5.15-9.66-.46-1.24-1.28-7.78-1.28-7.78h.44a3.54 3.54 0 001.21-.16l.53-.17s1 5.35 1.88 6.8c1.85 2.92 6.72 3.51 6.72 3.51z"/><g clip-path="url(#clip-path)"><path class="cls-16" d="M264.55 152.69c-1.06-3.64-1.55-7.19-.54-10.65.43-1.45 2-7.53 2.43-9a19.28 19.28 0 00.57-4.62h.57a19.69 19.69 0 01-.57 4.67c-.43 1.47-2 7.55-2.43 9-1 3.41-.52 6.93.54 10.54z"/></g><circle class="cls-17" cx="286.69" cy="126.02" r="1.24"/><path class="cls-18" d="M272.6 140.26c1.41-5.86 4.24-3.95 8-6.68a47.31 47.31 0 005.79-5.42 2.44 2.44 0 01-1.06-.46 1.88 1.88 0 01-.68-.91s-3.79 3.16-5.43 3.68c-5.6 1.77-9.47.1-8.77.57 2.4 1.6 2.15 9.22 2.15 9.22z"/><rect class="cls-17" x="265.6" y="122.14" width="6.19" height="6.19" rx="3.09" transform="rotate(-151.79 268.7 125.22)"/><path class="cls-7" d="M268.23 126.3l.17.07.14-.37a2 2 0 01-1.09-1l-.25-.12a1.41 1.41 0 01-1.18-.09l-.17.36a1.77 1.77 0 001.3.15 2.54 2.54 0 001.08 1z"/><ellipse class="cls-17" cx="271.73" cy="126.91" rx=".62" ry=".48" transform="rotate(-58.46 271.71 126.91)"/><path class="cls-7" d="M267.64 119.91a2.44 2.44 0 011.43.33 3.28 3.28 0 012.81.32c.85.52 1.7 1.72 1.52 2.55a1.27 1.27 0 01.31.44c.25.85-1.56 3.55-2.29 3.14a8.65 8.65 0 01-3.3-3 3 3 0 01-1.74-.51c-.47-.44.26-1.65.83-2.14-.02-.61.14-1.04.43-1.13z"/></g></svg>