<svg xmlns="http://www.w3.org/2000/svg" viewBox="0 0 794.7 168.4">
  <path d="M266.1 41.3h-4.2c-4.1 0-5.9 1.2-8.6 5.7l-22.4 36.3-9.3-35.9c-1.1-4.3-2.3-6-7-6h-3.5c-4.6 0-7.5 2.7-8.4 7.5l-10.4 58.4c-.8 4.4 1.2 6.7 5 6.7h1.6c4 0 5.8-2 6.5-6.3l8.4-47.2 8.1 31.6c.7 3.2 1.3 5.3 7.4 5.3 5.1 0 6.3-1.8 8.1-4.7l19.8-32.5-8.4 47.2c-.8 4.5 1.2 6.7 4.9 6.7h1.7c4 0 5.8-2.1 6.5-6.3L272.2 49c.9-4.7-1.4-7.7-6.1-7.7zM328.6 83.1c-.5-14.2-10.1-24.6-26.3-24.6-18.5 0-29.8 15.1-29.3 31.6.6 15.1 11 24.8 26.3 24.8 19-.1 29.8-15.3 29.3-31.8zm-29.2 21.4c-8.7 0-14.2-6.3-14.5-14.9-.4-11.1 6.9-20.9 17.3-20.9 8 0 14.3 6.3 14.6 15 .3 11.7-7 20.8-17.4 20.8zM369.9 58.5c-7.7 0-13.8 3.8-17.9 10.2.4-7.3-3.6-9.4-7.7-9.4-1.9 0-3.4.5-3.5.7l-8.4 47.5c-.8 4.9 1.9 6.3 5.5 6.3h1.5c3.9 0 5.5-1.6 6.3-6.3l5-28.5c3.6-6.3 7.6-9.3 13.8-9.3 6.2 0 9.9 3.7 10 9.8.1 1.6-.3 3.6-.6 6l-3.9 22c-.8 4.9 2 6.3 5.5 6.3h1.5c3.9 0 5.5-1.6 6.3-6.3l4.3-24.3c.5-2.7.8-5.1.7-7.3-.3-10.2-7.1-17.4-18.4-17.4zM606.5 58.5c-6.3 0-11 3.6-14.2 10.2.5-7.3-3.5-9.4-7.6-9.4-2 0-3.4.5-3.5.7l-8.5 47.5c-.8 4.9 2.4 6.3 6 6.3h1.5c3.4 0 5-1.6 5.9-6.3l2.8-15.9c2.1-12.4 6.7-21 14.1-21 3.6 0 5.9 1.5 7.4 3.2.2.2 5.8-2 5.6-8.6-.3-4.1-4.4-6.7-9.5-6.7zM671.1 59.3c-5.2 0-8.1 2.5-9.8 9.1-3.3-6.2-10.1-10-18-10-16.8 0-28.5 15-28.5 32 0 14 8.6 24.4 22.2 24.4 8.3 0 14.7-3.4 18.8-10.3-.6 7.2.8 9.4 6 9.4 4.6 0 6.1-1.7 6.6-6.8.6-9.4 3.8-24.7 7.5-46.2 0-.4-2.1-1.6-4.8-1.6zm-31.2 45.2c-8.2 0-12.9-5.2-12.9-14.4 0-10.8 6.3-21.6 18-21.6 9.5 0 13.5 7 13.5 14.7 0 9.7-6.6 21.3-18.6 21.3zM750.9 58.5c-9.2 0-15.3 4.7-19.6 11.6-2.1-7.3-8.4-11.6-16.4-11.6-7 0-13.1 3.3-17.3 9.6.2-6.7-3.7-8.7-7.7-8.7-2 0-3.4.5-3.5.7l-8.4 47.5c-.8 4.9 1.9 6.3 5.5 6.3h1.5c3.4 0 5.5-1.4 6.3-6.3l5.2-29.5c3.8-5.9 7.4-8.4 13-8.4 5.5 0 8.9 4.1 8.9 10.3 0 1-.1 2.1-.3 3.3l-4.2 24.3c-.8 4.9 2 6.3 5.5 6.3h1.4c3.4 0 5.6-1.5 6.4-6.3l5.2-29.5c3.8-5.9 7.4-8.4 13-8.4 5.3 0 9.2 3.2 9.2 9.8 0 1.6-.3 3.6-.7 6l-3.9 22c-.8 4.9 1.9 6.3 5.5 6.3h1.5c3.9 0 5.5-1.6 6.3-6.3l4.3-24.3c.5-2.7.7-5.1.7-7.3.1-10.7-7.1-17.4-17.4-17.4zM449 82.3c0-7.4-1.5-12.3-4.8-16.6-3.6-4.6-10.3-7.4-18.1-7.4-23.6 0-32.1 17.4-32.1 32.5 0 14.4 10.4 24 26.4 24 16 0 25-7.1 25-12.8 0-3.8-2.7-5.1-5.8-5.4-4.2 5.4-10 8-17.9 8-7 0-15.3-2.7-15.9-15.2h36.3c3.9.1 6.9-2.1 6.9-7.1zm-11.7-1.7H407c2.9-7.7 9.6-12.5 18.1-12.5 4.3 0 7.6 1.2 9.8 3.6 1.9 2.2 2.6 5.2 2.4 8.9zM561.7 75h-21.6c-2.6 0-3.8.6-4.6 1.4-1.3 1.4-2 4.6-2 6 .1 2.2 2 3.5 5.5 3.5h15.3c-2.1 10.7-8.9 18.1-20.6 18.1-12.3 0-20.5-7.8-21-21.1-.6-16.7 10.5-30.5 26.2-30.5 9.2 0 16.4 4.9 19.3 11.4.4.5 8.9.5 8.6-6.8-.1-2.6-1.6-5.7-4.4-8.3-4.5-4.5-13-8.4-24.3-8.4-15.8 0-28.3 8.7-34.8 21.3 0-.1-.1-.1-.1-.1-1.3-1.7-3.4-2.5-5.5-2.5-3.5 0-5.8 1.1-9.2 7.1l-16.8 29.5-6.3-29.4c-1.2-5.5-3.2-7.2-6.7-7.2-4.1 0-7.4 3-7.3 3.7l12 47.5-12.4 20.4c-1.3 2.2-1.4 5.1 3.3 5.1h2.6c4.9 0 6.5-3 8.9-7.1l33.8-57.2c-1 4-1.5 8.3-1.3 12.7.6 19.2 13.6 30.8 32.6 30.8 9 0 16.2-3.4 20.2-8.6-.3 5.6 2.7 7.8 6.7 7.8 2.2 0 3.8-.7 3.8-1.1l5.5-30.8c.9-4.8-.9-7.2-5.4-7.2zM782.6 108c.4.7.7 1 1.2 1 0 0 .1.8-.9.8-.6 0-1-.3-1.6-1.4l-1.1-2h-1l-.5 2.8c-.1.4-.3.6-.7.6h-.2c-.4 0-.6-.2-.5-.7l1.4-7.2c.1-.5.4-.7.9-.7h2.1c1.9 0 3 .8 3 2.2 0 1.7-1.1 2.8-3 2.9l.9 1.7zm-1.3-2.7c1.3 0 2-.7 1.9-1.8 0-.8-.6-1.3-1.7-1.3H780l-.6 3h1.9z"/>
  <path d="M781 98.9c3.9 0 7 3.2 7 7 0 3.9-3.2 7-7 7-3.9 0-7-3.2-7-7-.1-3.8 3.1-7 7-7m0-1.2c-4.5 0-8.2 3.7-8.2 8.2 0 4.5 3.7 8.2 8.2 8.2s8.2-3.7 8.2-8.2c0-4.5-3.7-8.2-8.2-8.2z"/>
  <circle cx="84.9" cy="84.2" r="79.3" fill="#fff"/>
  <path d="M164.2 84.2c0 43.8-35.5 79.3-79.3 79.3S5.6 128 5.6 84.2c0-12.1 2.7-23.5 7.5-33.7-3.2 8.1-4.7 16.2-4.7 23.7 0 35.9 29 41.1 41.3 41 18.8-.2 40.7-9.4 59.2-26.4 0 0-2.4 13.4-3.1 17.5-.7 4 1.9 7.5 5.9 7.5h1.6c4.1 0 7.1-3.4 7.8-7.5l6.7-37.4c.8-4.2-1.9-7.5-6.1-7.5H84.3c-4.2 0-8 2.2-8.7 6.4 0 .2-.3 1.4-.3 1.7-.6 4 2.2 7 6.2 7H101l-.9.9c-13.5 12.7-30.2 19.7-44 19.7-13.7 0-29.1-8.7-29.1-28.2 0-40.5 38-64 57.9-64 43.7 0 79.3 35.5 79.3 79.3z" fill="#df2127"/>
</svg>
