<svg xmlns="http://www.w3.org/2000/svg" xmlns:xlink="http://www.w3.org/1999/xlink" viewBox="0 0 360 196"><defs><linearGradient id="linear-gradient" x1="162" y1="157.1" x2="197.7" y2="72.8" gradientUnits="userSpaceOnUse"><stop offset="0" stop-color="#e2e6e8" stop-opacity=".1"/><stop offset="1" stop-color="#e2e6e8"/></linearGradient><linearGradient id="linear-gradient-2" x1="-9743.7" y1="-3715.1" x2="-9743.7" y2="-3711.1" gradientTransform="rotate(180 -4781.8 -1768.5)" gradientUnits="userSpaceOnUse"><stop offset="0" stop-opacity="0"/><stop offset="1" stop-opacity=".2"/></linearGradient><linearGradient id="linear-gradient-3" x1="119.3" y1="99.7" x2="135" y2="99.7" gradientUnits="userSpaceOnUse"><stop offset="0" stop-color="#2ed06e" stop-opacity=".1"/><stop offset="1" stop-color="#2ed06e"/></linearGradient><linearGradient id="linear-gradient-4" x1="119.3" y1="96.2" x2="135" y2="96.2" xlink:href="#linear-gradient-3"/><clipPath id="clipPath"><circle className="cls-1" cx="139.4" cy="131.8" r="21"/></clipPath><style>.cls-1{fill:#dbf4fe}.cls-8{fill:#845739}.cls-9{fill:#253655}.cls-10{fill:#829ca9}.cls-12{fill:#00b9ff}.cls-17{fill:#c58f62}.cls-20{opacity:.2}</style></defs><path d="M0 0h360v196H0z" id="frames" fill="none"/><g id="Layer_1" data-name="Layer 1"><circle cx="179.9" cy="114.9" r="45.7" fill="url(#linear-gradient)"/><path d="M223 128.4l-.9-.3h-19a1.1 1.1 0 00-.7.3l-9 9a1.1 1.1 0 00-.3.8v1a1.1 1.1 0 00.3.9l9.8 9.7a1.1 1.1 0 010 1.6l-5.2 5.2a1.5 1.5 0 00-.4.5 45.8 45.8 0 0025.6-27.5 1.1 1.1 0 00-.3-1.2zm-48.2-52.8v5.1a2.8 2.8 0 01-2.8 2.8 2.9 2.9 0 00-2.8 2.9V91a2.9 2.9 0 01-3 2.9 2.8 2.8 0 00-2.8 2.8 2.8 2.8 0 002.8 2.9h1.9a1.4 1.4 0 011 .4l19.3 18.7a2.8 2.8 0 002 .8h32.3a2.8 2.8 0 002.9-2.7v-2a45.7 45.7 0 00-44.4-45.6 2.9 2.9 0 00-2 .8l-3.6 3.5a2.8 2.8 0 00-.8 2zm-10.4 77v-30.4a3.6 3.6 0 00-3.5-3.6h-1.2a3.5 3.5 0 01-3.6-3.5v-2.4a3.5 3.5 0 00-3.6-3.5h-5.4a3.6 3.6 0 01-2.6-1l-3.6-3.6a3.5 3.5 0 00-2.5-1 3.6 3.6 0 00-3.5 2.8 45.8 45.8 0 0024.4 49.5 3.6 3.6 0 005.1-3.3z" fill="#d3d5d8"/><ellipse cx="180" cy="176.1" rx="20.2" ry="2" fill="url(#linear-gradient-2)"/><circle cx="229.8" cy="131.9" r="21" fill="#ddf5fd"/><path d="M243.8 132.3c.5.4 3.8 6.3.5 5.2a4.5 4.5 0 01-2.4-1.6 2.2 2.2 0 01-.4-1.1 2.8 2.8 0 01.1-.9l.3-1.2c.3-1 .8-1.1 1.8-.4zm-28.7 7.9a13.2 13.2 0 01.9 1.3 6.3 6.3 0 01.3.7c.2.5.1 1 .5 1.4a1 1 0 00.2.2h.2a2.7 2.7 0 00.3-1.6 4.2 4.2 0 00-.2-2 2.3 2.3 0 00-1.2-1 4.2 4.2 0 00-.8-.2h-.4s-.3-.2-.3 0l.1.6a3.8 3.8 0 00.4.6z" fill="#5d7077"/><rect className="cls-8" x="225.7" y="126" width="8.7" height="8.7" rx="4.3" transform="rotate(-173.9 230 130.3)"/><path className="cls-9" d="M225.3 127.8c-.7-1.1.3-5 2.4-4.9 1.2 0 .9 1.4 1.7 1.6s1.2-.7 2.3-.4.8 1.6 1.4 1.7 1-1 2-.7c1.8.5 1.5 4.5.5 6.1a8.1 8.1 0 01-3 2.6c-.3 0 .7-1.6-.2-2-.6-.3-.9.3-1 0s.8-1 0-2-2.7.2-4-.2a4.3 4.3 0 01-2.1-1.8z"/><path className="cls-8" d="M244.2 137.2l-2.3-3.8a14.6 14.6 0 004.2-5l2.2-5.7a2.4 2.4 0 002 1c-.4 9.2-5.7 13.2-6.2 13.5zm-13.9 2.1a3.4 3.4 0 003.3-3.3 15.6 15.6 0 01-3.3.3 13.8 13.8 0 01-3.4-.3 3.3 3.3 0 003.4 3.3zm-13.9-1.2l2.5 3.6c-.3.2-1.8 1.5-2.3 1.7a1 1 0 00-.3 1.6l2.8 3.4c-1.2.6-1.1 1.5-1.1 1.5s-5.9-3-6-6.6c0-2.3 2.8-3.9 4.4-5.2z"/><path className="cls-10" d="M245.6 137.3a4 4 0 01-2.4-1.9 6.8 6.8 0 01-.8-3v-.5l-3.7 2.6s-1.3 1-5 1a.1.1 0 000 .1 3.4 3.4 0 01-6.7 0l-5-.3a9 9 0 00-6.2 2.4c-.7.6-1.3 1.1-1.2 1.2a4 4 0 012.5 5c1-.8 2.5-1.2 3.1.3a5.8 5.8 0 01-.6 6 21 21 0 0018.2 1.2 30.6 30.6 0 003.2-1.7c0-.1-.7-6.2.4-8.3.6-1.2 3.5-3.1 4.2-4z"/><circle className="cls-8" cx="219.7" cy="150.3" r="1.3"/><rect x="166.1" y="35.2" width="27.5" height="27.5" rx="3.2" fill="#37517e"/><path className="cls-12" d="M175.4 42.5l2 3.4-3.6 3.4h6.2l.6-1.3h-3.4l2-2-1.2-2.1h5.6l-4.9 11.6h1.7l5.5-13h-10.5z"/><circle className="cls-8" cx="249.9" cy="121.3" r="1.3"/><path d="M142.5 74.9l-9 10.5-4-7.9 9-10.5 4 7.9z" fill="#2ed06e"/><path d="M119.7 122a58.3 58.3 0 01-.4-7 57.4 57.4 0 0113.9-37.5L135 79a55 55 0 00-13.3 35.9 55.9 55.9 0 00.4 6.7z" fill="url(#linear-gradient-3)"/><circle className="cls-1" cx="139.4" cy="131.8" r="21"/><g clipPath="url(#clipPath)"><path d="M138.4 127.4c.8-.1 4.2-.7 4.3-2.1.2-1.8-2-2.7-3.5-2.7a6.2 6.2 0 00-5.8 4.5c-1.6 6.5 7.5 14.5 11.7 15 3.1.5 6.1-5.7 5.5-7.2-1.4-3.1-8.9-1-9.2-4.9a3.2 3.2 0 01-2.8 1.8c-1.6 0-3.1-1.7-2.6-3 .4-1 1.6-1.3 2.4-1.4z" fill="#2f4367"/><rect className="cls-17" x="135.6" y="124.8" width="6.1" height="7" rx="2.9"/><path d="M139.2 122.5c-2.5 0-5.4 1.8-6 4.5a10.4 10.4 0 000 5.7 11.7 11.7 0 004.9 5.7 22.5 22.5 0 01-2-4.6 18.2 18.2 0 01.1-5 2.7 2.7 0 012.2-1.4c.9-.2 4.2-.7 4.3-2.1.2-1.8-2-2.8-3.5-2.8z" fill="#38527d"/><path d="M135.9 136.2v-2.7l2 .2a6.9 6.9 0 001.3 0l2-.2v2.7" fill="#fffefe"/><circle className="cls-17" cx="123.4" cy="123" r="1.2"/><path className="cls-12" d="M134.4 133.5a10.8 10.8 0 01-2.6-.5 10.4 10.4 0 01-5.8-5.3l-1.3-2.6-1.7.4c-.2.5 1.2 6 3.2 8.2 1.7 1.8 5.6 4.2 5.8 7.8.1 1.3 3.6-4 5.1-5.1"/><rect className="cls-10" x="118.4" y="111.3" width="6.9" height="11.7" rx=".8" transform="rotate(162.3 121.8 117.1)"/><circle className="cls-20" cx="123" cy="121" r=".8"/><path className="cls-20" transform="rotate(-17.7 120.4 112.8)" d="M119.1 112.4h2.6v.9h-2.6z"/></g><path d="M121.7 115h-2.4a57.4 57.4 0 0113.9-37.5L135 79a55 55 0 00-13.3 36z" fill="url(#linear-gradient-4)"/><rect x="118.4" y="111.3" width="6.9" height="11.7" rx=".8" transform="rotate(162.3 121.8 117.1)" fill="#849da9"/><circle className="cls-9" cx="123" cy="121" r=".8"/><path className="cls-9" transform="rotate(-17.7 120.4 112.8)" d="M119.1 112.4h2.6v.9h-2.6z"/><path className="cls-12" d="M141 133.5a.5.5 0 00-.4.2l-1.4 2a.5.5 0 01-.8 0l-1.4-2a.5.5 0 00-.5-.2H134l-2.3 6a25.8 25.8 0 01.5 6.3 11.9 11.9 0 01-1.6 5 21 21 0 008.7 2 21.2 21.2 0 006-1 64.7 64.7 0 01-.5-11c.6-2.7 2.2 1.6 2.1 3.7a63.4 63.4 0 01-.9 7 20.8 20.8 0 003-1.3 28.3 28.3 0 001.2-6.4c0-3-1.7-8.3-3.2-9.7-1-.7-4.2-.7-6-.6z"/></g></svg>