<svg class="tw-new-trust-element__image" xmlns="http://www.w3.org/2000/svg" viewBox="0 0 84 50"><path d="M14.3 43.5h46.9v-21H0v21h7.1V50l7.2-6.5z"/><path d="M70.1 38.5H7.2v-24h77.2v24h-7.1V45l-7.2-6.5z" data-animator-group="true" data-animator-type="2"/><path d="M24 25.5h-3.2l-1-3-1 3h-3.2l2.6 1.9-1 3.1 2.6-1.9 2.6 1.9-1-3.1 2.6-1.9zM37 25.5h-3.2l-1-3-1 3h-3.2l2.6 1.9-1 3.1 2.6-1.9 2.6 1.9-1-3.1zM50 25.5h-3.2l-1-3-1 3h-3.2l2.6 1.9-1 3.1 2.6-1.9 2.6 1.9-1-3.1 2.6-1.9zM63 25.5h-3.2l-1-3-1 3h-3.2l2.6 1.9-1 3.1 2.6-1.9 2.6 1.9-1-3.1 2.6-1.9zM76 25.5h-3.2l-1-3-1 3h-3.2l2.6 1.9-1 3.1 2.6-1.9 2.6 1.9-1-3.1 2.6-1.9z" data-animator-group="true" data-animator-type="2"/></svg>