<svg xmlns="http://www.w3.org/2000/svg" viewBox="0 0 360 196"><defs><linearGradient id="linear-gradient" x1="161.61" y1="170.3" x2="190.26" y2="170.3" gradientUnits="userSpaceOnUse"><stop offset="0" stop-opacity="0"/><stop offset=".06" stop-opacity=".03"/><stop offset=".5" stop-opacity=".1"/><stop offset="1" stop-opacity="0"/></linearGradient><linearGradient id="linear-gradient-2" x1="212.87" y1="66.15" x2="150.99" y2="101.87" gradientUnits="userSpaceOnUse"><stop offset="0" stop-color="#e2e6e8" stop-opacity=".1"/><stop offset="1" stop-color="#e2e6e8"/></linearGradient><clipPath id="clipPath"><path className="cls-1" d="M181.29 114.09L178.7 127a.41.41 0 01-.8 0l-2.82-12.87h-4.71a.62.62 0 00-.62.62l.9 16-.67 9.48 16.48-.14-1.21-7.58a14 14 0 010-1.83l1-9.55-.06-7.09z"/></clipPath><style>.cls-1{fill:none}.cls-3{fill:#849da8}.cls-4{fill:#253655}.cls-5{fill:#5d7079}.cls-7{fill:#fcd3b9}.cls-8{fill:#77d9f7}.cls-10{fill:#2e4369}</style></defs><path className="cls-1" d="M0 0h360v196H0z" id="frames"/><g id="Layer_1" data-name="Layer 1"><path d="M162.08 141.64a1.7 1.7 0 00-1.7 1.7v19.35a1.7 1.7 0 001.7 1.7m32.63 0a1.7 1.7 0 001.7-1.7v-19.35a1.7 1.7 0 00-1.7-1.7" stroke="#849da8" stroke-miterlimit="10" stroke-width="1.14" fill="none"/><rect className="cls-3" x="189.03" y="121.76" width="2.21" height="26.65" rx="1.1"/><path className="cls-3" transform="rotate(-.5 179.308 138.294)" d="M165.15 127.18h26.19v20.35h-26.19z"/><path className="cls-4" transform="rotate(-.5 179.263 148.607)" d="M163.59 145.26h29.52v5.7h-29.52z"/><path className="cls-4" transform="rotate(-.5 186.093 158.95)" d="M183.91 150.91h2.05v14.46h-2.05z"/><path className="cls-4" transform="translate(-1.38 1.52)" d="M170.91 151.02h2.05v14.46h-2.05z"/><path className="cls-4" d="M177.68 167.14l-6.68.06v-1.7l5.42-.05a1.26 1.26 0 011.27 1.25zm8.32-.07l-6.68.06v-.44a1.26 1.26 0 011.25-1.28h5.42z"/><path className="cls-5" d="M193.3 170a1.55 1.55 0 01-1.68-1.4l-.28-31.22A1.57 1.57 0 01193 136a1.55 1.55 0 011.68 1.4l.28 31.22a1.57 1.57 0 01-1.66 1.38zm-29.62.3a1.56 1.56 0 01-1.58-1.46l-.28-31.11a1.69 1.69 0 013.34-.08l.28 31.22a1.58 1.58 0 01-1.76 1.43z"/><ellipse cx="175.94" cy="170.3" rx="14.33" ry="1.12" fill="url(#linear-gradient)"/><ellipse className="cls-7" cx="178.37" cy="109.13" rx="4.32" ry="4.03" transform="rotate(-81.67 178.376 109.125)"/><path className="cls-8" d="M175.08 114.49l3.23 14.59 3-14.65s-1.32.87-4.28.58a1.86 1.86 0 01-.34-.06z"/><circle className="cls-7" cx="158.72" cy="123.97" r="1.66"/><path className="cls-7" d="M181.48 164.52l1.45.01.11-12.34-3.19-.02 1.63 12.35zm-5.83 0l1.45.01.1-12.34-3.18-.02 1.63 12.35z"/><path className="cls-5" d="M174.72 105.62a1.16 1.16 0 00-.69.89 1.17 1.17 0 001 1.34 1.19 1.19 0 001-.3 1.13 1.13 0 00.83.58 1.16 1.16 0 00.88-.21 1.18 1.18 0 00.87.62 1.26 1.26 0 00.51 0 1.16 1.16 0 00.86.63 1.28 1.28 0 00.62-.07 1 1 0 00-.07.25 1.15 1.15 0 00.4 1.07 1.18 1.18 0 101.51.41 1.17 1.17 0 00.81-.93 1.28 1.28 0 00-.06-.59 1.18 1.18 0 00.87-1 1.3 1.3 0 000-.52 1.11 1.11 0 00.42-.73 1.18 1.18 0 00-.47-1.13 1.11 1.11 0 00.14-.41 1.17 1.17 0 00-1-1.34h-.19a1.17 1.17 0 00-1-1.32 1.11 1.11 0 00-.8.17 1.18 1.18 0 00-1-1 1.16 1.16 0 00-1.19.57 1.17 1.17 0 00-2.21-.22 1.21 1.21 0 00-.8-.53 1.17 1.17 0 00-1.34 1 1.14 1.14 0 00.23.9 1.17 1.17 0 00-.11 1.85z"/><path className="cls-4" d="M181.28 114.43l-2.58 12.75a.41.41 0 01-.81 0l-2.81-12.7h-4.72a.61.61 0 00-.61.61l.9 15.74-.68 9.35 16.48-.14-1.2-7.48a13.65 13.65 0 010-1.81l1.06-9.41v-6a1 1 0 00-1-1z"/><circle className="cls-5" cx="175.97" cy="132.11" r=".82"/><path className="cls-8" d="M186.77 154.7c.83-.49 2-8 2.23-10.14a4.23 4.23 0 00-2.54-4.47 25.89 25.89 0 00-4-.27c-1.38 0-2.77.4-4.12.35-1.59-.06-2.88-.35-3.77-.35a35.09 35.09 0 00-4.62.41 4.23 4.23 0 00-2.47 4.52c.3 2.09 1.38 9.53 2.42 10.09 5.53-.96 13.22 1.4 16.87-.14z"/><g clipPath="url(#clipPath)"><path className="cls-5" d="M178.74 140.19l-.48-.05a47.89 47.89 0 000-7.66c0-.42-.09-.85-.14-1.31a11.5 11.5 0 010-4.26l.46.14a11.3 11.3 0 000 4.06c.05.46.1.9.14 1.33a47.86 47.86 0 01.02 7.75z"/></g><path className="cls-5" d="M179 165.3a.71.71 0 01.06-.46 6 6 0 013.31-1.36 4.83 4.83 0 01.67 0c.13 0 .23.19.23.41v1.29c0 .23-.11.41-.23.41h-3.83c-.13-.03-.21-.14-.21-.29zm-5.71 0a.71.71 0 01.06-.46 6 6 0 013.31-1.36 4.83 4.83 0 01.67 0c.13 0 .23.19.23.41v1.29c0 .23-.1.41-.23.41h-3.82c-.1-.03-.18-.14-.22-.29z"/><path className="cls-10" d="M187.1 115.66a1.83 1.83 0 00-1.86-1.24c-1 .14-1.61 1.49-1.6 2.11 0 .23 1.13 7.94.8 8.58-1.16 2.26-9.47-.68-9.47-.68a2.64 2.64 0 010 1.16 1.84 1.84 0 01-.8 1.13c1.38.3 2.77.57 4.17.84a52.66 52.66 0 006.37 1c3.17.18 3.37-3.61 3.32-5.9a31.18 31.18 0 00-.86-6.79c-.04-.09-.05-.15-.07-.21z"/><path opacity=".63" fill="url(#linear-gradient-2)" d="M154.88 108.61l14.87-59.67 57.8 42.64-50.76 37.5-21.91-20.47z"/><path d="M176.26 129.58l-12.57 2.5a2.06 2.06 0 01-2.3-1.42l-6.42-21a1.61 1.61 0 011.22-2.12l12.57-2.54a2.05 2.05 0 012.3 1.41l6.42 21a1.61 1.61 0 01-1.22 2.17z" fill="#485cc7"/><circle className="cls-7" cx="172.85" cy="124.72" r="1.66"/><path className="cls-10" d="M184.45 123.46a5.71 5.71 0 010 1.65c-1.16 2.26-9.47-.68-9.47-.68a2.64 2.64 0 010 1.16 1.84 1.84 0 01-.8 1.13c1.38.3 2.77.57 4.17.84a52.66 52.66 0 006.37 1c3.17.18 3.37-3.61 3.32-5.9 0-.59 0-1.18-.08-1.78"/></g></svg>