<?xml version="1.0" encoding="UTF-8"?>
<svg width="61px" height="55px" viewBox="0 0 61 55" version="1.1" xmlns="http://www.w3.org/2000/svg" xmlns:xlink="http://www.w3.org/1999/xlink">
    <!-- Generator: Sketch 53.2 (72643) - https://sketchapp.com -->
    <title>15-Navigation-Send-money-optimized</title>
    <desc>Created with Sketch.</desc>
    <defs>
        <linearGradient x1="30.5%" y1="96%" x2="69.6666667%" y2="4%" id="linearGradient-1">
            <stop stop-color="#E2E6E8" stop-opacity="0.1" offset="0%"></stop>
            <stop stop-color="#E2E6E8" offset="100%"></stop>
        </linearGradient>
    </defs>
    <g id="Design" stroke="none" stroke-width="1" fill="none" fill-rule="evenodd">
        <g id="Navigation-v4_send" transform="translate(-102.000000, -99.000000)">
            <g id="15-Navigation-Send-money-optimized" transform="translate(102.000000, 99.000000)">
                <circle id="Globe" fill="url(#linearGradient-1)" cx="30.6810811" cy="27.5" r="27.1621622"></circle>
                <path d="M56.3040541,35.4675676 L55.8513514,35.2864865 L44.5337838,35.2864865 C44.3647734,35.2840649 44.2017978,35.3492551 44.0810811,35.4675676 L38.7391892,40.9 C38.6408524,40.9976731 38.5772445,41.1248889 38.5581081,41.2621622 L38.5581081,41.9864865 C38.5556865,42.1554968 38.6208767,42.3184725 38.7391892,42.4391892 L44.5337838,48.2337838 C44.6554497,48.3529915 44.7240113,48.5161543 44.7240113,48.6864865 C44.7240113,48.8568187 44.6554497,49.0199815 44.5337838,49.1391892 L41.4554054,52.2175676 C41.3684789,52.3230703 41.3065706,52.4468869 41.2743243,52.5797297 C48.4552149,49.5442326 53.9922747,43.5787098 56.4851351,36.1918919 C56.5884845,35.9367462 56.5153132,35.6440612 56.3040541,35.4675676 L56.3040541,35.4675676 Z" id="Country" fill="#D3D5D8"></path>
                <path d="M27.6932432,4.14054054 L27.6932432,7.12837838 C27.6932432,8.07845741 26.923052,8.84864865 25.972973,8.84864865 C25.0228939,8.84864865 24.2527027,9.61883988 24.2527027,10.5689189 L24.2527027,13.2851351 C24.2773579,13.7415394 24.1193674,14.1889927 23.8136038,14.5287299 C23.5078403,14.8684672 23.0794438,15.0725551 22.622973,15.0959459 C21.7071577,15.0946767 20.9509027,15.8111288 20.9027027,16.7256757 C20.9027027,17.6757547 21.6728939,18.4459459 22.622973,18.4459459 L23.7094595,18.4459459 C23.9164133,18.4712378 24.1082969,18.5671796 24.2527027,18.7175676 L35.7513514,29.7635135 C36.0722439,30.0579665 36.4928763,30.2197482 36.9283784,30.2162162 L56.122973,30.2162162 C57.0387883,30.2174855 57.7950433,29.5010334 57.8432432,28.5864865 L57.8432432,27.5 C57.8513869,12.8453375 46.2330075,0.826324399 31.5864865,0.337837838 C31.1200158,0.310319377 30.6624208,0.473746166 30.3189189,0.790540541 L28.2364865,3.05405405 C27.908849,3.36054662 27.7139118,3.78291055 27.6932432,4.23108108 L27.6932432,4.14054054 Z" id="Country-2" fill="#D3D5D8"></path>
                <path d="M21.5364865,49.8635135 L21.5364865,31.7554054 C21.5364865,30.6053097 20.6041497,29.672973 19.4540541,29.672973 L18.7297297,29.672973 C17.5796341,29.672973 16.6472973,28.7406362 16.6472973,27.5905405 L16.6472973,26.1418919 C16.6478348,25.5735454 16.4160516,25.0296732 16.005712,24.636431 C15.5953723,24.2431888 15.0421336,24.0347485 14.4743243,24.0594595 L11.2148649,24.0594595 C10.6674361,24.046875 10.1469922,23.8191808 9.76621622,23.4256757 L7.59324324,21.3432432 C7.18464239,20.9360552 6.63090303,20.7080449 6.05405405,20.7094595 C5.03172014,20.6938992 4.14932101,21.4228376 3.97162162,22.4297297 C1.70926158,34.3457395 7.6212852,46.3175874 18.4581081,51.7648649 C19.1005341,52.1147533 19.8794378,52.101897 20.5099668,51.7309976 C21.1404958,51.3600982 21.5301717,50.6855547 21.5364865,49.9540541 L21.5364865,49.8635135 Z" id="Country-3" fill="#D3D5D8"></path>
                <polygon id="Path" fill="#2ED06E" points="60.3783784 11.4743243 0.621621622 11.4743243 0.621621622 43.5256757 60.3783784 43.5256757"></polygon>
                <path d="M60.3783784,11.4743243 L0.621621622,11.4743243 L0.621621622,43.5256757 L60.3783784,43.5256757 L60.3783784,11.4743243 Z M57.8432432,33.4756757 C53.5016791,33.4809095 49.8298093,36.6889641 49.2418919,40.9905405 L11.7581081,40.9905405 C11.1656916,36.6546875 7.44216827,33.4353913 3.06621622,33.4756757 L3.06621622,21.5243243 C7.44216827,21.5646087 11.1656916,18.3453125 11.7581081,14.0094595 L49.2418919,14.0094595 C49.8298093,18.3110359 53.5016791,21.5190905 57.8432432,21.5243243 L57.8432432,33.4756757 Z" id="Shape" fill="#27B35F" fill-rule="nonzero"></path>
                <circle id="Oval" fill="#27B35F" cx="30.5" cy="27.5" r="5.25135135"></circle>
            </g>
        </g>
    </g>
</svg>