<svg xmlns="http://www.w3.org/2000/svg" xmlns:xlink="http://www.w3.org/1999/xlink" viewBox="0 0 360 196"><defs><linearGradient id="linear-gradient" x1="-6539.83" y1="364.3" x2="-6524.15" y2="364.3" gradientTransform="rotate(116.96 -3066.997 2294.494)" gradientUnits="userSpaceOnUse"><stop offset="0" stop-color="#2ed06e" stop-opacity=".1"/><stop offset="1" stop-color="#2ed06e"/></linearGradient><linearGradient id="linear-gradient-2" x1="161.83" y1="158.03" x2="197.58" y2="73.82" gradientUnits="userSpaceOnUse"><stop offset="0" stop-color="#e2e6e8" stop-opacity=".1"/><stop offset="1" stop-color="#e2e6e8"/></linearGradient><linearGradient id="linear-gradient-3" x1="119.14" y1="100.71" x2="134.82" y2="100.71" xlink:href="#linear-gradient"/><linearGradient id="linear-gradient-4" x1="119.14" y1="97.21" x2="134.82" y2="97.21" xlink:href="#linear-gradient"/><linearGradient id="linear-gradient-5" x1="-10503.65" y1="-3715.13" x2="-10503.65" y2="-3711.09" gradientTransform="rotate(180 -5161.845 -1768.52)" gradientUnits="userSpaceOnUse"><stop offset="0" stop-opacity="0"/><stop offset="1" stop-opacity=".2"/></linearGradient><clipPath id="clipPath"><circle className="cls-1" cx="139.21" cy="132.75" r="21.01"/></clipPath><style>.cls-1{fill:#dbf4fe}.cls-14,.cls-2{fill:none}.cls-6{fill:#5d7077}.cls-7{fill:#845739}.cls-8{fill:#253655}.cls-9{fill:#829ca9}.cls-11{fill:#00b9ff}.cls-12{fill:#2ed06e}.cls-13{fill:#27b35f}.cls-14{stroke:#2ed06e;stroke-miterlimit:10;stroke-width:1.17px}.cls-18{fill:#c58f62}.cls-21{opacity:.2}</style></defs><path className="cls-2" d="M0 0h360v196H0z" id="frames"/><g id="Layer_1" data-name="Layer 1"><path d="M210.32 67.87l1.07-2.11a57.41 57.41 0 0127.08 29.36l-2.19.89a55 55 0 00-25.96-28.14z" fill="url(#linear-gradient)"/><circle cx="179.71" cy="115.93" r="45.73" fill="url(#linear-gradient-2)"/><path d="M222.78 129.4l-.8-.33H203a1.13 1.13 0 00-.79.33l-9 9a1.15 1.15 0 00-.33.8v1.08a1.11 1.11 0 00.33.79l9.77 9.75a1.12 1.12 0 010 1.59l-5.2 5.19a1.4 1.4 0 00-.33.51A45.84 45.84 0 00223 130.55a1.14 1.14 0 00-.22-1.15zm-48.14-52.82v5.11a2.84 2.84 0 01-2.84 2.84 2.84 2.84 0 00-2.8 2.84v4.74a2.85 2.85 0 01-2.9 2.89 2.85 2.85 0 00-2.84 2.85 2.84 2.84 0 002.84 2.84h1.83a1.46 1.46 0 011 .41l19.28 18.69a2.86 2.86 0 002 .8h32.36a2.85 2.85 0 002.85-2.74v-1.87a45.74 45.74 0 00-44.31-45.71 2.89 2.89 0 00-2.13.83l-3.52 3.52a2.81 2.81 0 00-.82 1.96zM164.3 153.6v-30.42a3.55 3.55 0 00-3.55-3.55h-1.24a3.55 3.55 0 01-3.55-3.56v-2.36a3.55 3.55 0 00-3.55-3.56h-5.5a3.54 3.54 0 01-2.51-1l-3.61-3.61a3.58 3.58 0 00-2.52-1 3.55 3.55 0 00-3.49 2.88 45.82 45.82 0 0024.39 49.44 3.55 3.55 0 005.13-3.26z" fill="#d3d5d8"/><circle className="cls-1" cx="229.68" cy="132.92" r="21.01"/><path className="cls-6" d="M243.6 133.27c.55.4 3.83 6.35.52 5.25a4.43 4.43 0 01-2.36-1.66 2.15 2.15 0 01-.42-1.09 2.84 2.84 0 01.12-.86l.31-1.27c.23-.94.82-1.1 1.83-.37z"/><rect className="cls-7" x="225.53" y="126.94" width="8.68" height="8.68" rx="4.34" transform="rotate(-173.88 229.868 131.28)"/><path className="cls-8" d="M225.15 128.77c-.65-1.14.3-4.92 2.39-4.88 1.17 0 .91 1.41 1.66 1.58s1.23-.73 2.33-.38.84 1.57 1.44 1.69.93-1 2-.68c1.77.46 1.5 4.51.48 6.1a8.08 8.08 0 01-3.07 2.57c-.23 0 .75-1.6-.13-2-.6-.27-.88.33-1.06.08s.84-1.15.09-2-2.78.17-4-.24a4.28 4.28 0 01-2.13-1.84z"/><circle className="cls-7" cx="249.78" cy="122.26" r="1.32"/><path className="cls-7" d="M244 138.16l-2.27-3.77a14.53 14.53 0 004.19-5.08c.24-.45 2.26-5.56 2.21-5.58a2.37 2.37 0 002 1c-.42 9.17-5.71 13.11-6.13 13.43zm-13.89 2.17a3.35 3.35 0 003.35-3.34 15.53 15.53 0 01-3.35.31 13.85 13.85 0 01-3.34-.3 3.34 3.34 0 003.34 3.33z"/><path className="cls-6" d="M217.5 131.72c-.62.29-4.91 5.55-1.47 5.07a4.54 4.54 0 002.63-1.2 2.23 2.23 0 00.61-1 2.81 2.81 0 000-.87l-.08-1.31c-.01-.97-.57-1.23-1.69-.69z"/><circle className="cls-7" cx="215.4" cy="118.45" r="1.32"/><path className="cls-7" d="M215.8 135.77c.92 1.44 3.38-2.82 3.38-2.82a14.68 14.68 0 01-2.3-6.17c-.07-.51-.41-6.46-.35-6.46a2.39 2.39 0 01-2.26.27c-2.57 8.82 1.24 14.74 1.53 15.18z"/><path className="cls-9" d="M219 131.63l-.12.52a7 7 0 01-1.33 2.79 4.12 4.12 0 01-2.78 1.42c.52 1.06 2.86 3.56 3.44 4.76 1.64 3.4-1 7.87-1 7.87a4.89 4.89 0 01-.29.6 21.07 21.07 0 007 3.52 111.08 111.08 0 012-16.63 5.89 5.89 0 01-3.8-1.64z"/><path className="cls-9" d="M245.48 138.34a4.05 4.05 0 01-2.43-1.83 6.9 6.9 0 01-.84-3.06v-.53l-3.67 2.58s-1.32 1-4.9 1a.14.14 0 00-.14.14 3.35 3.35 0 01-6.68.08.26.26 0 00-.24-.24c-2.25-.12-3.88-.16-5-.16-.27 1.69-.11 3.71-.56 5.24a19.9 19.9 0 01-1.15 2.92 1.36 1.36 0 01.24.67 13.92 13.92 0 01-.64 6.05 21 21 0 0018.94.82c.83-.43 1.64-.89 2.42-1.37 0-.13-.63-6.28.47-8.29.58-1.13 3.48-3.07 4.18-4.02z"/><rect x="165.95" y="35.24" width="27.52" height="27.52" rx="3.24" fill="#37517e"/><path className="cls-11" d="M175.22 42.53l2.03 3.39-3.55 3.39h6.13l.58-1.36h-3.38l2.04-2.04-1.19-2.02h5.57l-4.89 11.59h1.68l5.47-12.95h-10.49z"/><path className="cls-12" d="M264.07 94.23L209 86.93l-3.9 29.4 55.06 7.3z"/><path className="cls-13" d="M264.07 94.23L209 86.93l-3.9 29.4 55.06 7.3zm-5 19.91a8.13 8.13 0 00-8.85 5.84l-34.6-4.59a8.1 8.1 0 00-7-7.94l1.46-11a8.1 8.1 0 008.85-5.83l34.6 4.59a8.12 8.12 0 007 7.94z"/><circle className="cls-13" cx="234.59" cy="105.28" r="4.85"/><circle className="cls-2" cx="210.32" cy="101.96" r="10.27"/><path className="cls-14" d="M200.14 100.61l-5.09-.68m5.65 5.93l-3.47 1.43m4.82-11.61l-2.98-2.29"/><circle className="cls-2" cx="258.67" cy="108.73" r="10.27"/><path className="cls-14" d="M268.85 110.08l5.09.68m-5.65-5.92l3.48-1.44m-4.83 11.61l2.99 2.29"/><circle className="cls-7" cx="249.78" cy="122.26" r="1.32"/><path className="cls-12" d="M142.32 75.84l-8.99 10.52-3.94-7.84L138.38 68l3.94 7.84z"/><path d="M119.56 122.93a58.45 58.45 0 01-.42-7A57.36 57.36 0 01133 78.49l1.82 1.51a55 55 0 00-13.32 35.9 55.57 55.57 0 00.41 6.71z" fill="url(#linear-gradient-3)"/><circle className="cls-1" cx="139.21" cy="132.75" r="21.01"/><g clipPath="url(#clipPath)"><path d="M138.26 128.38c.84-.14 4.17-.71 4.31-2.11.18-1.79-1.95-2.74-3.53-2.74a6.18 6.18 0 00-5.79 4.53c-1.58 6.52 7.47 14.48 11.68 15.06 3.15.44 6.13-5.78 5.48-7.28-1.34-3.09-8.86-1-9.13-4.81a3.24 3.24 0 01-2.79 1.77c-1.65 0-3.14-1.76-2.61-3.05.36-.88 1.52-1.22 2.38-1.37z" fill="#2f4367"/><rect className="cls-18" x="135.44" y="125.81" width="6.11" height="6.99" rx="2.94"/><path d="M139 123.53c-2.51 0-5.41 1.8-6 4.45a10.45 10.45 0 00.15 5.66 11.8 11.8 0 004.8 5.71 23 23 0 01-2-4.51 18.27 18.27 0 01.11-5.1 2.72 2.72 0 012.22-1.36c.84-.14 4.17-.71 4.31-2.11.16-1.79-1.97-2.74-3.59-2.74z" fill="#38527d"/><path d="M135.72 137.21v-2.74l2 .22a6.87 6.87 0 001.36 0l2-.2v2.74" fill="#fffefe"/><circle className="cls-18" cx="123.26" cy="123.95" r="1.16"/><path className="cls-11" d="M134.28 134.5a10 10 0 01-2.68-.53 10.35 10.35 0 01-5.78-5.29c-.47-1-.93-2-1.25-2.59l-1.76.42c-.15.52 1.27 5.92 3.28 8.17 1.63 1.81 5.61 4.23 5.8 7.77.07 1.34 3.58-3.94 5.08-5.08"/><rect className="cls-9" x="118.24" y="112.29" width="6.87" height="11.65" rx=".85" transform="rotate(162.34 121.67 118.119)"/><circle className="cls-21" cx="122.82" cy="122.01" r=".77"/><path className="cls-21" transform="rotate(-17.66 120.276 113.783)" d="M118.98 113.35h2.63v.87h-2.63z"/></g><path d="M121.5 115.93h-2.36A57.36 57.36 0 01133 78.49l1.82 1.51a55 55 0 00-13.32 35.93z" fill="url(#linear-gradient-4)"/><rect x="118.24" y="112.29" width="6.87" height="11.65" rx=".85" transform="rotate(162.34 121.67 118.119)" fill="#849da9"/><circle className="cls-8" cx="122.82" cy="122.01" r=".77"/><path className="cls-8" transform="rotate(-17.66 120.276 113.783)" d="M118.98 113.35h2.63v.87h-2.63z"/><path className="cls-11" d="M140.8 134.45h-.07a.54.54 0 00-.37.23l-1.36 2.05a.48.48 0 01-.83 0l-1.36-2a.52.52 0 00-.44-.23h-2.53l-2.35 5.89a26 26 0 01.54 6.38 11.85 11.85 0 01-1.61 5.09 21 21 0 0014.78 1 64.67 64.67 0 01-.57-11c.64-2.8 2.17 1.52 2.15 3.68a62.67 62.67 0 01-.93 7 20.82 20.82 0 003-1.3 28.33 28.33 0 001.22-6.47c0-3-1.76-8.28-3.25-9.61-.99-.81-4.13-.75-6.02-.71z"/><ellipse cx="179.97" cy="176.07" rx="20.23" ry="2.02" fill="url(#linear-gradient-5)"/></g></svg>