<?xml version="1.0" encoding="utf-8"?>
<!-- Generator: Adobe Illustrator 21.0.0, SVG Export Plug-In . SVG Version: 6.00 Build 0)  -->
<svg version="1.1" id="Layer_1" xmlns="http://www.w3.org/2000/svg" xmlns:xlink="http://www.w3.org/1999/xlink" x="0px" y="0px"
	 viewBox="0 0 896 156" style="enable-background:new 0 0 896 156;" xml:space="preserve">
<style type="text/css">
	.st0{fill:#00B9FF;}
	.st1{fill:#FFFFFF;}
</style>
<title>NatWest_200x200</title>
<desc>Created with Sketch.</desc>
<g>
	<g>
		<polygon class="st0" points="16.3,2.7 35.9,35.6 1.6,68.4 61,68.4 66.6,55.2 33.8,55.2 53.6,35.5 42,15.8 96.1,15.8 48.6,128.2 
			64.9,128.2 117.9,2.7 		"/>
		<rect x="737.2" y="79.6" class="st1" width="13.5" height="71.9"/>
		<rect x="736.6" y="55.3" class="st1" width="14.8" height="14.6"/>
		<polygon class="st1" points="714,55.3 697.2,130 696.6,130 679.1,79.6 667,79.6 647.1,130 646.5,130 633.1,55.3 618.5,55.3 
			636.8,151.5 650.4,151.5 671.9,98.2 672.5,98.2 691.2,151.5 704.8,151.5 728,55.3 		"/>
		<path class="st1" d="M525.5,140.9c-13.1,0-22.2-10.3-22.2-25.3c0-14,7.8-25.9,20.5-25.9c14.6,0,18.5,12.1,18.9,19.6h-25.2
			l-4.7,10.9h43.7c0.2-2.8,0.2-3.6,0.2-5.1c0-20.6-10.5-37-33.1-37c-19.5,0-34.5,15.8-34.5,37.4c0,22.3,14.4,37,34.9,37
			c12.3,0,23.2-4.5,29.8-12.3l-8.2-7.9C540.3,137.9,533.3,140.9,525.5,140.9"/>
		<path class="st1" d="M471.9,78.2c0-8.9,4.3-14,12.5-14c3.1,0,8,0.8,11.9,2.2l4.3-9.9c-5.3-2.6-11.7-3.6-16.6-3.6
			c-13.8,0-25.7,6.9-25.7,25.3v2.2h-9v11.3h9v59.7h13.6V91.8h13.8l4.7-11.3h-18.5V78.2z"/>
		<path class="st1" d="M349.8,78.2c-9,0-17.2,3.4-21.4,10.5h-0.6v-9.1h-13.1v71.9h13.6v-38.9c0-14.2,7.2-22.7,18.5-22.7
			c10.7,0,17,5.7,17,18.8v42.7h13.6v-45.1C377.3,88.1,366.6,78.2,349.8,78.2"/>
		<path class="st1" d="M285.5,123.7c0,10.7-8.8,17.6-21.1,17.6c-7.4,0-13.8-3.4-13.8-11.9c0-7.9,6.6-13.2,16.6-13.2
			c9,0,15,1.6,18.3,4V123.7z M266.4,78.2c-8,0-15.6,1.2-21.4,3.4l2.3,10.9c6.6-2,11.9-2.8,17.2-2.8c11.5,0,20.9,5.3,20.9,17v2
			c-3.7-1.4-9.4-3.2-17.9-3.2c-18.5,0-30.6,9.3-30.6,24.5c0,15.8,11.9,22.9,25.3,22.9c11.1,0,18.7-4.5,22.6-9.7h0.6v8.3h13.1v-44.9
			C298.6,86.9,285.9,78.2,266.4,78.2"/>
		<polygon class="st1" points="117.9,55.3 117.9,68.3 148.3,68.3 148.3,151.5 162.7,151.5 162.7,68.3 193.1,68.3 193.1,55.3 		"/>
		<path class="st1" d="M237.7,81c-4.3-1.8-9-2-11.7-2c-7.6,0-15,3-18.9,8.5h-0.6v-7.9h-13.1v71.9h13.6v-39.3
			c0-15.2,7.4-21.3,18.3-21.3c3.7,0,6.2,0.4,9.4,1.2L237.7,81z"/>
		<path class="st1" d="M614.9,81.2c-4.3-1.8-9-2.2-11.7-2.2c-7.6,0-15.8,3-19.7,8.5h-0.6v-7.9h-13.1v71.9h13.6v-39.3
			c0-15.2,8.2-21.3,19.1-21.3c3.7,0,6.2,0.4,9.4,1.2L614.9,81.2z"/>
		<path class="st1" d="M861.8,140.9c-13.1,0-22.2-10.3-22.2-25.3c0-14,7.8-25.9,20.5-25.9c14.6,0,18.5,12.1,18.9,19.6h-25.2
			l-4.7,10.9h43.7c0.2-2.8,0.2-3.6,0.2-5.1c0-20.6-10.5-37-33.1-37c-19.5,0-34.5,15.8-34.5,37.4c0,22.3,14.4,37,34.9,37
			c12.3,0,23.2-4.5,29.8-12.3l-8.2-7.9C876.6,137.9,869.6,140.9,861.8,140.9"/>
		<path class="st1" d="M418.8,110c-10.5-1.4-16.6-3.4-16.6-10.3c0-6.3,6.2-10.1,13.8-10.1c6.2,0,14,2.4,18.9,6.1l6.6-9.7
			c-6.2-5.1-16-7.7-25.3-7.7c-15.8,0-27.5,9.5-27.5,22.1c0,14.4,9.2,19,24.9,21.5c8.8,1.4,16.4,2.4,16.4,9.9c0,6.3-6.2,9.7-14.4,9.7
			c-8,0-15.2-2.2-22.2-7.7l-5.9,10.7c5.1,4.7,15.8,8.3,27.7,8.3c16.4,0,28.3-9.5,28.3-22.3C443.4,115,431.1,111.6,418.8,110"/>
		<path class="st1" d="M793.7,110c-10.5-1.4-16.6-3.4-16.6-10.3c0-6.3,6.2-10.1,13.8-10.1c6.2,0,14,2.4,18.9,6.1l6.6-9.7
			c-6.2-5.1-16-7.7-25.3-7.7c-15.8,0-27.5,9.5-27.5,22.1c0,14.4,9.2,19,24.8,21.5c8.8,1.4,16.4,2.4,16.4,9.9c0,6.3-6.2,9.7-14.4,9.7
			c-8,0-15.2-2.2-22.2-7.7l-5.9,10.7c5.1,4.7,15.8,8.3,27.7,8.3c16.4,0,28.3-9.5,28.3-22.3C818.4,115.1,806.1,111.6,793.7,110"/>
	</g>
</g>
</svg>
