<svg id="Layer_1" xmlns="http://www.w3.org/2000/svg" viewBox="0 0 896 156"><style></style><path fill="#fff" d="M16.3 2.7l19.6 32.9L1.6 68.4H61l5.6-13.2H33.8l19.8-19.7L42 15.8h54.1L48.6 128.2h16.3l53-125.5zM737.2 79.6h13.5v71.9h-13.5zM736.6 55.3h14.8v14.6h-14.8zM714 55.3L697.2 130h-.6l-17.5-50.4H667L647.1 130h-.6l-13.4-74.7h-14.6l18.3 96.2h13.6l21.5-53.3h.6l18.7 53.3h13.6L728 55.3zM525.5 140.9c-13.1 0-22.2-10.3-22.2-25.3 0-14 7.8-25.9 20.5-25.9 14.6 0 18.5 12.1 18.9 19.6h-25.2l-4.7 10.9h43.7c.2-2.8.2-3.6.2-5.1 0-20.6-10.5-37-33.1-37-19.5 0-34.5 15.8-34.5 37.4 0 22.3 14.4 37 34.9 37 12.3 0 23.2-4.5 29.8-12.3l-8.2-7.9c-5.3 5.6-12.3 8.6-20.1 8.6M471.9 78.2c0-8.9 4.3-14 12.5-14 3.1 0 8 .8 11.9 2.2l4.3-9.9c-5.3-2.6-11.7-3.6-16.6-3.6-13.8 0-25.7 6.9-25.7 25.3v2.2h-9v11.3h9v59.7h13.6V91.8h13.8l4.7-11.3h-18.5v-2.3zM349.8 78.2c-9 0-17.2 3.4-21.4 10.5h-.6v-9.1h-13.1v71.9h13.6v-38.9c0-14.2 7.2-22.7 18.5-22.7 10.7 0 17 5.7 17 18.8v42.7h13.6v-45.1c-.1-18.2-10.8-28.1-27.6-28.1M285.5 123.7c0 10.7-8.8 17.6-21.1 17.6-7.4 0-13.8-3.4-13.8-11.9 0-7.9 6.6-13.2 16.6-13.2 9 0 15 1.6 18.3 4v3.5zm-19.1-45.5c-8 0-15.6 1.2-21.4 3.4l2.3 10.9c6.6-2 11.9-2.8 17.2-2.8 11.5 0 20.9 5.3 20.9 17v2c-3.7-1.4-9.4-3.2-17.9-3.2-18.5 0-30.6 9.3-30.6 24.5 0 15.8 11.9 22.9 25.3 22.9 11.1 0 18.7-4.5 22.6-9.7h.6v8.3h13.1v-44.9c.1-19.7-12.6-28.4-32.1-28.4M117.9 55.3v13h30.4v83.2h14.4V68.3h30.4v-13zM237.7 81c-4.3-1.8-9-2-11.7-2-7.6 0-15 3-18.9 8.5h-.6v-7.9h-13.1v71.9H207v-39.3c0-15.2 7.4-21.3 18.3-21.3 3.7 0 6.2.4 9.4 1.2l3-11.1zM614.9 81.2c-4.3-1.8-9-2.2-11.7-2.2-7.6 0-15.8 3-19.7 8.5h-.6v-7.9h-13.1v71.9h13.6v-39.3c0-15.2 8.2-21.3 19.1-21.3 3.7 0 6.2.4 9.4 1.2l3-10.9zM861.8 140.9c-13.1 0-22.2-10.3-22.2-25.3 0-14 7.8-25.9 20.5-25.9 14.6 0 18.5 12.1 18.9 19.6h-25.2l-4.7 10.9h43.7c.2-2.8.2-3.6.2-5.1 0-20.6-10.5-37-33.1-37-19.5 0-34.5 15.8-34.5 37.4 0 22.3 14.4 37 34.9 37 12.3 0 23.2-4.5 29.8-12.3l-8.2-7.9c-5.3 5.6-12.3 8.6-20.1 8.6M418.8 110c-10.5-1.4-16.6-3.4-16.6-10.3 0-6.3 6.2-10.1 13.8-10.1 6.2 0 14 2.4 18.9 6.1l6.6-9.7c-6.2-5.1-16-7.7-25.3-7.7-15.8 0-27.5 9.5-27.5 22.1 0 14.4 9.2 19 24.9 21.5 8.8 1.4 16.4 2.4 16.4 9.9 0 6.3-6.2 9.7-14.4 9.7-8 0-15.2-2.2-22.2-7.7l-5.9 10.7c5.1 4.7 15.8 8.3 27.7 8.3 16.4 0 28.3-9.5 28.3-22.3-.1-15.5-12.4-18.9-24.7-20.5M793.7 110c-10.5-1.4-16.6-3.4-16.6-10.3 0-6.3 6.2-10.1 13.8-10.1 6.2 0 14 2.4 18.9 6.1l6.6-9.7c-6.2-5.1-16-7.7-25.3-7.7-15.8 0-27.5 9.5-27.5 22.1 0 14.4 9.2 19 24.8 21.5 8.8 1.4 16.4 2.4 16.4 9.9 0 6.3-6.2 9.7-14.4 9.7-8 0-15.2-2.2-22.2-7.7l-5.9 10.7c5.1 4.7 15.8 8.3 27.7 8.3 16.4 0 28.3-9.5 28.3-22.3.1-15.4-12.2-18.9-24.6-20.5"/></svg>