<svg xmlns="http://www.w3.org/2000/svg" viewBox="0 0 360 196"><defs><linearGradient id="linear-gradient" x1="15328.09" y1="166.81" x2="15357.52" y2="166.81" gradientTransform="translate(-15204.59)" gradientUnits="userSpaceOnUse"><stop offset="0" stop-opacity="0"/><stop offset=".15" stop-opacity=".05"/><stop offset="1" stop-opacity=".1"/></linearGradient><linearGradient id="linear-gradient-2" x1="163.81" y1="214.26" x2="211.32" y2="102.34" gradientTransform="rotate(-1.77 -1868.09 273.2)" gradientUnits="userSpaceOnUse"><stop offset="0" stop-color="#e2e6e8" stop-opacity=".1"/><stop offset="1" stop-color="#e2e6e8"/></linearGradient><style>.cls-3{fill:#fcd3b9}.cls-4{fill:#253655}.cls-7{fill:#829ca9}</style></defs><path d="M0 0h360v196H0z" id="frames" fill="none"/><g id="Layer_1" data-name="Layer 1"><path d="M123.51 164.63c10.16 1.36 29.42.76 29.42 3.16l-9.85 1.2-19.57-.12" fill="url(#linear-gradient)"/><path class="cls-3" transform="rotate(-176.6 148.19 163.67)" d="M147.15 161.25h2.08v4.85h-2.08z"/><path class="cls-4" d="M154.92 139a119.4 119.4 0 01-4.45 23.73c-1.17.55-2.56.39-4.31-.3 1.63-7.71.31-16.14-1.31-24.09-1.47-7.22-1.06-7.75-.89-13.39 0-1.41 7.07-11 9-7.94a13.48 13.48 0 011.28 4.63 58.9 58.9 0 01.92 8.16 68.92 68.92 0 01-.24 9.2z"/><path class="cls-3" transform="rotate(-174.82 138.5 164.7)" d="M137.47 162.27h2.08v4.85h-2.08z"/><path class="cls-4" d="M143.39 168.74a.42.42 0 00-.07-.42 11.41 11.41 0 00-6.07-1.94.36.36 0 00-.33.39v1.81a.36.36 0 00.33.38h5.84a.34.34 0 00.3-.22zm9.85-1.19a.44.44 0 00-.08-.43 11.46 11.46 0 00-6.06-1.94.37.37 0 00-.33.39v1.81a.37.37 0 00.33.39h5.84a.34.34 0 00.3-.22z"/><path d="M145 139.8a119.4 119.4 0 01-4.45 23.73c-1.16.56-2.55.39-4.31-.29 1.64-7.72.32-16.14-1.31-24.1-1.47-7.22-1.05-7.74-.88-13.39 0-1.4 7.06-11 9-7.93a13.2 13.2 0 011.28 4.63 58.73 58.73 0 01.92 8.16 68.77 68.77 0 01-.25 9.19z" fill="#2f4367"/><path d="M157.81 132.7c0 1.72-5.8 2.8-13 2.8s-12.27.43-13.29-2.26c-.07-.18.85-.57.85-.57 0-1.77 6.09-3.42 12.44-3.42a28.14 28.14 0 0113 3.45z" fill="#6f878f"/><path class="cls-7" d="M136.91 105.54c-2.57 2.35-4.46 4.32-6.92 3.18-3.24-1.49-3.66-2.53-5.88-5.47-.2-.26-.25.27-1.12.92-.56.42-1.4.33-1.34.49 1.46 4.16 5.5 9.74 9.87 9.72s11.19-1.82 10.59-7.19a3.09 3.09 0 00-2.94-2.82 4.67 4.67 0 00-2.26 1.17zm9.09-.25a2.87 2.87 0 00.5 3.76c3 2.6 3.59 4 7.08 8.51s3.54 9.94 3.74 9.84c1.6-.81 3.1.43 3.09.08a49.72 49.72 0 00-2.59-13.1c-1.78-5.12-5.73-9.6-7.84-10.2s-3.05-.28-4 1.11z"/><circle class="cls-3" cx="121.63" cy="104.12" r="1.56"/><circle class="cls-3" cx="158.85" cy="127.55" r="1.56"/><path class="cls-7" d="M149.73 105.71l1.67 2.71c2 4 3.72 19.51 6.41 26.28 0 0-6.92-9.14-14.2-5.43-3.93 2-8.5 6.75-10.8 6.07a5.6 5.6 0 00-1.25-.1c-.43-2.91 1.75-8.31 3-14 1.17-5.21 1.38-10.79 2.34-12.68 0 0 2.61-3.17 3.36-3.14z"/><path class="cls-4" d="M149.53 101.58a8.37 8.37 0 00-.12-6.74 4.92 4.92 0 00-3.86-2.15 8 8 0 00-5.43 1.75c-1.37 1.24-.75 5.37-.34 7l.06.17a4.1 4.1 0 00-.65 3.12c.14.43 1.25.3 1.64 1.15.81 1.75 3.9 4.49 6.16 4.32 3.48-.27 3.86-5.55 2.74-8z"/><path class="cls-3" d="M147.32 97.2c-2.22-.49-3.81.25-5.27.16a11 11 0 01-.62 2.76 1.39 1.39 0 00.17 1.25 4 4 0 006.75-.2 1.11 1.11 0 00.06-1 24.94 24.94 0 01-1.09-2.97z"/><path class="cls-7" d="M146 108.9a2.69 2.69 0 003.45-2c.07-.28-.38-.36-.44-.08a2.25 2.25 0 01-2.82 1.68c-.27-.1-.46.3-.19.4zm-4.34-11.07c1.79-1.17 4.11-.1 6.05-.67.28-.08.12-.5-.16-.42-2 .59-4.28-.5-6.15.73-.24.16 0 .52.26.36zm6.5 6.98a3.08 3.08 0 00.71-1.63c0-.23-.32-.29-.35-.06a2.69 2.69 0 01-.64 1.45.18.18 0 00.28.24zm-7.76-2.38a4.61 4.61 0 003.27 2.51.2.2 0 00.07-.39 4.17 4.17 0 01-3-2.26c-.12-.22-.49-.09-.38.14z"/><path d="M242.44 53l-121.28 3.75a3.33 3.33 0 00-3.23 3.43l2.27 73.31a3.33 3.33 0 003.43 3.22L244.91 133a3.34 3.34 0 003.23-3.43l-2.27-73.31a3.32 3.32 0 00-3.43-3.26zm-78.61 68l-37 1.15-1.58-51 37-1.14z" fill-rule="evenodd" fill="#fff"/><path d="M242.44 53l-121.28 3.75a3.33 3.33 0 00-3.23 3.43l2.27 73.31a3.33 3.33 0 003.43 3.22L244.91 133a3.34 3.34 0 003.23-3.43l-2.27-73.31a3.32 3.32 0 00-3.43-3.26zm-78.61 68l-37 1.15-1.58-51 37-1.14z" fill="url(#linear-gradient-2)" fill-rule="evenodd"/><path d="M231.36 87.69l-52.09 1.62-1.57 4.05 52.09-1.61 1.57-4.06zm-.37-11.99l-52.09 1.61-1.58 4.05 52.09-1.61 1.58-4.05z" fill="#485cc7" fill-rule="evenodd"/><path d="M242.44 53l-121.28 3.75a3.33 3.33 0 00-3.23 3.43l.12 3.92 127.94-4-.12-3.92a3.32 3.32 0 00-3.43-3.18zm5.56 72.61l-127.94 4 .12 3.92a3.33 3.33 0 003.43 3.22l121.3-3.75a3.34 3.34 0 003.23-3.43z" fill="#d2d4d7" fill-rule="evenodd"/><path d="M188.62 114c-1.94.06-6.48.2-7.12-3-.59-3 6.89-7.88 10.86-9.2a.5.5 0 11.32.94c-4.27 1.42-10.59 6.08-10.2 8.06.34 1.67 2.16 2.33 6.11 2.21a13.86 13.86 0 006.49-2.1.46.46 0 010-.26 11.15 11.15 0 015.33-5.65 1.16 1.16 0 011.09.07 1.2 1.2 0 01.53.94 2.55 2.55 0 01-1.14 1.86c-.73.62-1.5 1.25-2.29 1.86a51.84 51.84 0 008.4-2.63.49.49 0 01.65.27.5.5 0 01-.28.65 8.45 8.45 0 00-2.47 1.72 81.63 81.63 0 0012-2.08l.09-.07c.62-.45 1.92-1.09 2.86-.63a.5.5 0 01.29.48.51.51 0 01-.35.44c-.76.24-1.58.47-2.43.69l-.08.07c1.22.32 4.64.52 6.24-.7a.5.5 0 01.61.8c-2.18 1.66-6.45 1.15-7.45.76a.75.75 0 01-.52-.62 80.42 80.42 0 01-11.43 1.87c-.79 0-1-.38-1-.62a1.15 1.15 0 01.29-.86 52.27 52.27 0 01-7.4 1.83 15.83 15.83 0 01-8 2.9zm12.25-8.14c-.62 0-3.34 2.12-4.46 4.21a43.81 43.81 0 003.83-3c.6-.51.8-.89.79-1.06s0-.08-.12-.18z" fill="#485cc7"/><circle class="cls-3" cx="160.33" cy="135.11" r="1.53" transform="rotate(-58.56 160.32 135.11)"/><circle class="cls-3" cx="119.46" cy="99.9" r="1.53"/></g></svg>