<svg xmlns="http://www.w3.org/2000/svg" viewBox="0 0 171.4 50"><path d="M171.4 50H0V0h171.4v50z"/><path d="M60.8 9.6c-4 0-6.3 1.6-6.3 4.5 0 1.8.7 3.1 2.9 3.7l3.9 1.1c.5.2.9.4.9 1s-.5 1.1-1.3 1.1c-.5 0-.8-.2-1.1-.5-.2-.3-.3-.7-.3-1.1h-5.2c0 3.6 3.1 4.6 6.4 4.6 3.9 0 6.6-1.4 6.6-4.8 0-1.7-.8-2.9-2.5-3.6-1.4-.6-3.3-1-4.4-1.3-.6-.2-.9-.4-.9-.9 0-.4.4-.8 1.3-.8.7 0 1.2.3 1.2 1.2h4.9c-.1-3.2-2.7-4.2-6.1-4.2zm75.3.1v30.6h1.7V9.7h-1.7zm17.5.1c-1 0-1.9.8-1.9 1.8s.8 1.8 1.9 1.8c1 0 1.8-.8 1.8-1.8s-.8-1.8-1.8-1.8zm-137.3.1l3 13.8h5.9l1.3-8.9 1.3 8.9h5.9l3-13.8h-4.9l-1.2 8.7h-.1l-1.3-8.7h-5.7l-1.3 8.7L21 9.9h-4.7zm23.8 0v13.8h10.7v-3.6h-5.4v-1.6h4.9V15h-4.9v-1.5h5.3V9.9H40.1zm30.2 0v3.7h3.4v10.1h5.5V13.6h3.4V9.9H70.3zm16 0v13.8H97v-3.6h-5.4v-1.6h4.9V15h-4.9v-1.5h5.3V9.9H86.3zm14.7 0v13.8h5.4v-4.9h.6c.9 0 1.2.3 1.3 1 .2 1.2.4 2.9.7 4h5.4c-.6-2.1-.6-4-.9-5.2-.3-1.1-1-1.6-2.3-1.8 2.1-.5 2.7-1.7 2.7-3.3 0-2.6-1.7-3.5-4.7-3.5 0-.1-8.2-.1-8.2-.1zm17.2 0v13.8h4.4v-8.4h.1l2.9 8.4h6.6V9.9h-4.4v8.3l-2.9-8.3h-6.7zm30.3 0v30.3h1.7V9.9h-1.7zm5.1.1c.9 0 1.5.7 1.5 1.6 0 .9-.6 1.6-1.5 1.6s-1.6-.7-1.6-1.6c0-.9.7-1.6 1.6-1.6zm-.7.6v2.1h.3v-1h.5l.6 1h.3l-.6-1c.4 0 .6-.1.6-.6 0-.3-.2-.6-.7-.6h-1zm.3.1h.6c.3 0 .5 0 .5.4s-.4.4-.7.4h-.4v-.8zm-46.8 2.4h.5c1.1 0 1.8.2 1.8 1.2s-.8 1.4-1.8 1.4h-.5v-2.6zm.5 13c-4.8 0-7.1 3-7.1 7.3s2.4 7.3 7.1 7.3c4.8 0 7.1-3 7.1-7.3.1-4.4-2.3-7.3-7.1-7.3zm-52.9.3v9.2c0 3.3 2.4 5 6.6 5 4.2 0 6.6-1.7 6.6-5v-9.2h-5.5v8.9c0 1.1-.5 1.5-1.1 1.5-.6 0-1.1-.4-1.1-1.5v-8.9H54zm17.6 0v13.8H76v-8.4l2.9 8.4h6.6V26.4h-4.4v8.4H81l-2.9-8.4h-6.5zm18.6 0v13.8h5.5V26.4h-5.5zm28 0v13.8h4.4v-8.4h.1l2.9 8.4h6.6V26.4h-4.4v8.4l-2.9-8.4h-6.7zm-11.3 3.3c.9 0 1.5.6 1.5 3.7 0 3.2-.6 3.7-1.5 3.7-.8 0-1.5-.5-1.5-3.7.1-3.2.7-3.7 1.5-3.7z" fill="#ffde38"/></svg>