<svg id="Layer_1" xmlns="http://www.w3.org/2000/svg" viewBox="0 0 226.7 50">
  <style>
    .st0{fill:#604684}
  </style>
  <path class="st0" d="M60.9 14.2H67l3.4 13.9 4-13.9h4.5l4 13.9 3.5-13.9h6.1l-6.2 22.1h-6l-3.6-12.5-3.6 12.5h-6l-6.2-22.1zm29.5 14.2c0-4.7 3.8-8.3 8.5-8.3s8.5 3.6 8.5 8.3c0 4.7-3.8 8.3-8.5 8.3-4.7.1-8.5-3.6-8.5-8.3zm11.7 0c0-2-1.4-3.3-3.2-3.3-1.8 0-3.2 1.3-3.2 3.3s1.4 3.3 3.2 3.3c1.8 0 3.2-1.3 3.2-3.3zm16.9-8.2V26c-2.1-.3-4.8.6-4.8 3.8v6.5H109V20.5h5.3v2.9c.6-2.1 2.6-3.2 4.7-3.2zm1.5-6.9h5.3v23h-5.3v-23zm23.7.9v22.1H139v-1.5c-1 1.2-2.5 1.9-4.5 1.9-4.3 0-7.5-3.6-7.5-8.3 0-4.7 3.2-8.3 7.5-8.3 2 0 3.5.7 4.5 1.9v-7.8h5.2zM139 28.4c0-2.1-1.4-3.4-3.3-3.4-2 0-3.3 1.4-3.3 3.4 0 2.1 1.4 3.4 3.3 3.4s3.3-1.3 3.3-3.4zm16.5.8h-2v7.1h-5.7V14.2h8.9c4.5 0 8 3.2 8 7.6 0 2.7-1.5 5-3.8 6.3l4.6 8.2h-6.1l-3.9-7.1zm-2-4.8h3.1c1.4 0 2.4-1 2.4-2.5s-1-2.5-2.4-2.5h-3.1v5z"/>
  <path class="st0" d="M173.8 32.3c1.1 0 2.1-.4 2.9-1.1l3.8 2.7c-1.6 2-4 2.9-6.8 2.9-5.5 0-8.9-3.6-8.9-8.3 0-4.7 3.5-8.4 8.5-8.4 4.8 0 8.2 3.6 8.2 8.3 0 .7-.1 1.3-.2 2h-11c.6 1.5 2 1.9 3.5 1.9zm2.5-5.6c-.5-1.6-1.7-2.2-3-2.2-1.5 0-2.7.8-3.1 2.2h6.1zm31.2 0v9.7h-5.3v-9.1c0-1.4-.6-2.2-2-2.2-1.5 0-2.2 1.1-2.2 2.7v8.6h-5.3v-9.1c0-1.4-.7-2.2-2-2.2-1.5 0-2.2 1.1-2.2 2.7v8.6h-5.3V20.5h5.3V22c.9-1.1 2.3-1.9 4.3-1.9 1.9 0 3.2.7 4.1 2 1-1.2 2.4-2 4.6-2 3.7 0 6 2.5 6 6.6zm1.6-9.4c-1-2.5 1.6-4.9 4.1-3.9.7.3 1.3.9 1.6 1.6 1 2.5-1.6 5-4.1 3.9-.7-.2-1.3-.8-1.6-1.6zm.2 3.2h5.3v15.8h-5.3V20.5zm14.1 5.1v4.6c0 1.5 1.2 1.6 3.3 1.5v4.7c-6.5.8-8.6-1.2-8.6-6.1v-4.7h-1.8v-5h1.8v-2.8l5.3-1.6v4.4h3.3v5h-3.3zM28.3 0L9.6 5.2 0 22l5.2 18.6L22.1 50l18.7-5.2L50.4 28 45.2 9.5 28.3 0z"/>
  <path d="M22.1 16.7H22l-2.4 7.1-.3.9c-.1.3-.1.6 0 .8l2.4 6.9c.1.4.4.7.8.8l.5.2 2.4-7.1.3-1c.1-.3.1-.6 0-.8l-2.4-6.9c-.2-.5-.6-.9-1.2-.9zm16.8-.5h-5.1c-.3 0-.6.2-.7.5l-2.4 6.9-.2.6c-.1.4-.1.9 0 1.3l2.6 7.5c.1.3.4.4.6.4h.2l5.6-16.2c.1-.2 0-.4-.1-.6 0-.3-.3-.4-.5-.4z" opacity=".7" fill="#fff"/>
  <path d="M22.2 33.8h-5.1c-.3 0-.6-.2-.7-.5l-5.6-16.2c-.1-.2 0-.4.1-.6.1-.2.3-.3.6-.3h5.1c.3 0 .6.2.7.5l5.6 16.2c.1.2 0 .4-.1.6-.2.2-.4.3-.6.3zm11.2 0h-5.1c-.3 0-.6-.2-.7-.5L22 17.1c-.1-.2 0-.4.1-.6.1-.2.3-.3.6-.3h5.1c.3 0 .6.2.7.5L34 32.9c.1.2 0 .4-.1.6-.1.2-.3.3-.5.3z" fill="#fff"/>
</svg>
